<?xml version="1.0" encoding="UTF-8" standalone="no"?>
<svg width="95px" height="92px" viewBox="0 0 95 92" version="1.1" xmlns="http://www.w3.org/2000/svg" xmlns:xlink="http://www.w3.org/1999/xlink">
    <!-- Generator: Sketch 39.1 (31720) - http://www.bohemiancoding.com/sketch -->
    <title>Benefits Icon Transparency@3x</title>
    <desc>Created with Sketch.</desc>
    <defs>
        <polygon id="path-1" points="0 92 95 92 95 0 0 0"></polygon>
    </defs>
    <g id="Page-1" stroke="none" stroke-width="1" fill="none" fill-rule="evenodd">
        <g id="Home@2x" transform="translate(-108.000000, -9805.000000)">
            <g id="Benefits-Icon-Transparency" transform="translate(108.000000, 9805.000000)">
                <g id="Group-3" transform="translate(0.000000, 20.774194)" fill="#0E92C2">
                    <path d="M3.44567969,26.7089355 C7.46239844,31.222871 25.8552891,50.4523548 47.5004453,50.4523548 C69.1678672,50.4523548 87.5399766,31.2243548 91.5537266,26.7104194 C87.5370078,22.1979677 69.1456016,2.96848387 47.5004453,2.96848387 C25.8315391,2.96848387 7.45942969,22.195 3.44567969,26.7089355 M47.5004453,53.4200968 C21.6782578,53.4200968 1.19388281,28.7002903 0.334429688,27.6482258 C-0.110882812,27.1021613 -0.110882812,26.3171935 0.334429688,25.771129 C1.19388281,24.7190645 21.6782578,0.000741935484 47.5004453,0.000741935484 C73.3211484,0.000741935484 93.8055234,24.7190645 94.6649766,25.771129 C95.1117734,26.3171935 95.1117734,27.1021613 94.6649766,27.6482258 C93.8055234,28.7002903 73.3211484,53.4200968 47.5004453,53.4200968" id="Fill-1"></path>
                </g>
                <path d="M47.5,23.7419355 C34.4048437,23.7419355 23.75,34.3931613 23.75,47.483871 C23.75,60.5745806 34.4048437,71.2258065 47.5,71.2258065 C60.5951563,71.2258065 71.25,60.5745806 71.25,47.483871 C71.25,34.3931613 60.5951563,23.7419355 47.5,23.7419355 M47.5,74.1935484 C32.7675781,74.1935484 20.78125,62.2112903 20.78125,47.483871 C20.78125,32.7564516 32.7675781,20.7741935 47.5,20.7741935 C62.2324219,20.7741935 74.21875,32.7564516 74.21875,47.483871 C74.21875,62.2112903 62.2324219,74.1935484 47.5,74.1935484" id="Fill-4" fill="#0EB1C2"></path>
                <path d="M47.5,29.6774194 C37.6778906,29.6774194 29.6875,37.6650968 29.6875,47.483871 C29.6875,57.3026452 37.6778906,65.2903226 47.5,65.2903226 C57.3221094,65.2903226 65.3125,57.3026452 65.3125,47.483871 C65.3125,37.6650968 57.3221094,29.6774194 47.5,29.6774194 M47.5,68.2580645 C36.040625,68.2580645 26.71875,58.9393548 26.71875,47.483871 C26.71875,36.0283871 36.040625,26.7096774 47.5,26.7096774 C58.959375,26.7096774 68.28125,36.0283871 68.28125,47.483871 C68.28125,58.9393548 58.959375,68.2580645 47.5,68.2580645" id="Fill-6" fill="#0EB1C2"></path>
                <mask id="mask-2" fill="white">
                    <use xlink:href="#path-1"></use>
                </mask>
                <g id="Clip-9"></g>
                <polygon id="Fill-8" fill="#0D61C2" mask="url(#mask-2)" points="37.109375 40.0645161 40.078125 40.0645161 40.078125 37.0967742 37.109375 37.0967742"></polygon>
                <path d="M47.5,59.3548387 C40.9524219,59.3548387 35.625,54.0292258 35.625,47.483871 L35.625,44.516129 L37.109375,44.516129 C41.2017969,44.516129 44.53125,41.1878065 44.53125,37.0967742 L44.53125,35.6129032 L47.5,35.6129032 C54.0475781,35.6129032 59.375,40.9385161 59.375,47.483871 L56.40625,47.483871 C56.40625,42.5737419 52.4117969,38.5806452 47.5,38.5806452 L47.3946094,38.5806452 C46.7414844,43.1227742 43.1374219,46.7256129 38.59375,47.3785161 L38.59375,47.483871 C38.59375,52.394 42.5882031,56.3870968 47.5,56.3870968 L47.5,59.3548387 Z" id="Fill-10" fill="#0D61C2" mask="url(#mask-2)"></path>
                <path d="M53.4375,50.4516129 C51.8002344,50.4516129 50.46875,51.7826452 50.46875,53.4193548 C50.46875,55.0560645 51.8002344,56.3870968 53.4375,56.3870968 C55.0732812,56.3870968 56.40625,55.0560645 56.40625,53.4193548 C56.40625,51.7826452 55.0732812,50.4516129 53.4375,50.4516129 M53.4375,59.3548387 C50.1629687,59.3548387 47.5,56.6927742 47.5,53.4193548 C47.5,50.1459355 50.1629687,47.483871 53.4375,47.483871 C56.7120312,47.483871 59.375,50.1459355 59.375,53.4193548 C59.375,56.6927742 56.7120312,59.3548387 53.4375,59.3548387" id="Fill-11" fill="#0D61C2" mask="url(#mask-2)"></path>
                <polygon id="Fill-12" fill="#0E92C2" mask="url(#mask-2)" points="28.6380469 20.3394194 20.1667187 11.8709677 0 11.8709677 0 8.90322581 21.3957812 8.90322581 30.7369531 18.2412258"></polygon>
                <polygon id="Fill-13" fill="#0E92C2" mask="url(#mask-2)" points="0 5.93548387 2.96875 5.93548387 2.96875 2.96774194 0 2.96774194"></polygon>
                <polygon id="Fill-14" fill="#0E92C2" mask="url(#mask-2)" points="5.9375 5.93548387 8.90625 5.93548387 8.90625 2.96774194 5.9375 2.96774194"></polygon>
                <polygon id="Fill-15" fill="#0E92C2" mask="url(#mask-2)" points="11.875 5.93548387 14.84375 5.93548387 14.84375 2.96774194 11.875 2.96774194"></polygon>
                <polygon id="Fill-16" fill="#0E92C2" mask="url(#mask-2)" points="95 86.0645161 73.6042187 86.0645161 64.2630469 76.7265161 66.3619531 74.6283226 74.8332812 83.0967742 95 83.0967742"></polygon>
                <polygon id="Fill-17" fill="#0E92C2" mask="url(#mask-2)" points="92.03125 92 95 92 95 89.0322581 92.03125 89.0322581"></polygon>
                <polygon id="Fill-18" fill="#0E92C2" mask="url(#mask-2)" points="86.09375 92 89.0625 92 89.0625 89.0322581 86.09375 89.0322581"></polygon>
                <polygon id="Fill-19" fill="#0E92C2" mask="url(#mask-2)" points="80.15625 92 83.125 92 83.125 89.0322581 80.15625 89.0322581"></polygon>
                <polygon id="Fill-20" fill="#0E92C2" mask="url(#mask-2)" points="95 35.6129032 92.03125 35.6129032 92.03125 2.96774194 53.4375 2.96774194 53.4375 17.8064516 50.46875 17.8064516 50.46875 0 95 0"></polygon>
                <path d="M81.640625,26.7096774 L81.640625,23.7419355 C84.0957812,23.7419355 86.09375,21.7446452 86.09375,19.2903226 C86.09375,16.836 84.0957812,14.8387097 81.640625,14.8387097 C79.1854687,14.8387097 77.1875,16.836 77.1875,19.2903226 L74.21875,19.2903226 C74.21875,15.1992903 77.5482031,11.8709677 81.640625,11.8709677 C85.7330469,11.8709677 89.0625,15.1992903 89.0625,19.2903226 C89.0625,23.3813548 85.7330469,26.7096774 81.640625,26.7096774" id="Fill-21" fill="#0E92C2" mask="url(#mask-2)"></path>
                <polygon id="Fill-22" fill="#0E92C2" mask="url(#mask-2)" points="68.28125 14.8387097 71.25 14.8387097 71.25 11.8709677 68.28125 11.8709677"></polygon>
                <polygon id="Fill-23" fill="#0E92C2" mask="url(#mask-2)" points="62.34375 14.8387097 65.3125 14.8387097 65.3125 11.8709677 62.34375 11.8709677"></polygon>
                <polygon id="Fill-24" fill="#0E92C2" mask="url(#mask-2)" points="56.40625 14.8387097 59.375 14.8387097 59.375 11.8709677 56.40625 11.8709677"></polygon>
                <polygon id="Fill-25" fill="#0E92C2" mask="url(#mask-2)" points="56.40625 8.90322581 89.0625 8.90322581 89.0625 5.93548387 56.40625 5.93548387"></polygon>
                <polygon id="Fill-26" fill="#0E92C2" mask="url(#mask-2)" points="35.625 86.0645161 0 86.0645161 0 77.1612903 17.8125 77.1612903 17.8125 80.1290323 2.96875 80.1290323 2.96875 83.0967742 35.625 83.0967742"></polygon>
                <polygon id="Fill-27" fill="#0E92C2" mask="url(#mask-2)" points="35.625 92 0 92 0 84.5806452 2.96875 84.5806452 2.96875 89.0322581 35.625 89.0322581"></polygon>
                <path d="M5.9375,65.2903226 C4.30023438,65.2903226 2.96875,66.6213548 2.96875,68.2580645 C2.96875,69.8947742 4.30023438,71.2258065 5.9375,71.2258065 C7.57328125,71.2258065 8.90625,69.8947742 8.90625,68.2580645 C8.90625,66.6213548 7.57328125,65.2903226 5.9375,65.2903226 M5.9375,74.1935484 C2.66296875,74.1935484 0,71.5314839 0,68.2580645 C0,64.9846452 2.66296875,62.3225806 5.9375,62.3225806 C9.21203125,62.3225806 11.875,64.9846452 11.875,68.2580645 C11.875,71.5314839 9.21203125,74.1935484 5.9375,74.1935484" id="Fill-28" fill="#0E92C2" mask="url(#mask-2)"></path>
                <polygon id="Fill-29" fill="#0E92C2" mask="url(#mask-2)" points="20.78125 80.1290323 23.75 80.1290323 23.75 77.1612903 20.78125 77.1612903"></polygon>
                <polygon id="Fill-30" fill="#0E92C2" mask="url(#mask-2)" points="38.59375 92 41.5625 92 41.5625 89.0322581 38.59375 89.0322581"></polygon>
                <polygon id="Fill-31" fill="#0E92C2" mask="url(#mask-2)" points="38.59375 86.0645161 41.5625 86.0645161 41.5625 83.0967742 38.59375 83.0967742"></polygon>
            </g>
        </g>
    </g>
</svg>