<?xml version="1.0" encoding="UTF-8" standalone="no"?>
<svg width="95px" height="89px" viewBox="0 0 95 89" version="1.1" xmlns="http://www.w3.org/2000/svg" xmlns:xlink="http://www.w3.org/1999/xlink">
    <!-- Generator: Sketch 39.1 (31720) - http://www.bohemiancoding.com/sketch -->
    <title>Benefits Icon Custom Technology @3x</title>
    <desc>Created with Sketch.</desc>
    <defs>
        <polygon id="path-1" points="0 89 95 89 95 0 0 0"></polygon>
    </defs>
    <g id="Page-1" stroke="none" stroke-width="1" fill="none" fill-rule="evenodd">
        <g id="Home@2x" transform="translate(-100.000000, -9086.000000)">
            <g id="Benefits-Icon-Custom-Technology-" transform="translate(100.000000, 9086.000000)">
                <path d="M75.703125,89 L72.734375,89 L72.734375,14.8333333 L63.828125,14.8333333 L63.828125,89 L60.859375,89 L60.859375,13.35 C60.859375,12.5312 61.524375,11.8666667 62.34375,11.8666667 L74.21875,11.8666667 C75.038125,11.8666667 75.703125,12.5312 75.703125,13.35 L75.703125,89 L75.703125,89 Z" id="Fill-1" fill="#0E92C2"></path>
                <path d="M55.2263203,11.8666667 L86.0938984,11.8666667 L86.0938984,2.96666667 L55.2263203,2.96666667 L46.0157734,6.91085 L46.0157734,7.92248333 L55.2263203,11.8666667 Z M87.5782734,14.8333333 L54.9220234,14.8333333 C54.7216328,14.8333333 54.5212422,14.7932833 54.3371797,14.7131833 L43.9465547,10.2631833 C43.4003047,10.0303 43.0470234,9.49333333 43.0470234,8.9 L43.0470234,5.93333333 C43.0470234,5.34 43.4003047,4.80303333 43.9465547,4.57015 L54.3371797,0.12015 C54.5212422,0.04005 54.7216328,0 54.9220234,0 L87.5782734,0 C88.3976484,0 89.0626484,0.664533333 89.0626484,1.48333333 L89.0626484,13.35 C89.0626484,14.1688 88.3976484,14.8333333 87.5782734,14.8333333 L87.5782734,14.8333333 Z" id="Fill-3" fill="#0E92C2"></path>
                <mask id="mask-2" fill="white">
                    <use xlink:href="#path-1"></use>
                </mask>
                <g id="Clip-6"></g>
                <polygon id="Fill-5" fill="#0E92C2" mask="url(#mask-2)" points="60.859375 22.25 75.703125 22.25 75.703125 19.2833333 60.859375 19.2833333"></polygon>
                <polygon id="Fill-7" fill="#0E92C2" mask="url(#mask-2)" points="95 75.65 0 75.65 0 34.1166667 40.078125 34.1166667 40.078125 37.0833333 2.96875 37.0833333 2.96875 72.6833333 92.03125 72.6833333 92.03125 37.0833333 78.671875 37.0833333 78.671875 34.1166667 95 34.1166667"></polygon>
                <path d="M7.421875,45.9833333 L10.390625,45.9833333 L10.390625,43.0166667 L7.421875,43.0166667 L7.421875,45.9833333 Z M19.296875,45.9833333 L22.265625,45.9833333 L22.265625,43.0166667 L19.296875,43.0166667 L19.296875,45.9833333 Z M25.234375,45.9833333 L28.203125,45.9833333 L28.203125,43.0166667 L25.234375,43.0166667 L25.234375,45.9833333 Z M31.171875,45.9833333 L34.140625,45.9833333 L34.140625,43.0166667 L31.171875,43.0166667 L31.171875,45.9833333 Z M37.109375,45.9833333 L40.078125,45.9833333 L40.078125,43.0166667 L37.109375,43.0166667 L37.109375,45.9833333 Z M48.984375,45.9833333 L51.953125,45.9833333 L51.953125,43.0166667 L48.984375,43.0166667 L48.984375,45.9833333 Z M66.796875,45.9833333 L69.765625,45.9833333 L69.765625,43.0166667 L66.796875,43.0166667 L66.796875,45.9833333 Z M78.671875,45.9833333 L81.640625,45.9833333 L81.640625,43.0166667 L78.671875,43.0166667 L78.671875,45.9833333 Z M84.609375,45.9833333 L87.578125,45.9833333 L87.578125,43.0166667 L84.609375,43.0166667 L84.609375,45.9833333 Z M7.421875,53.4 L13.359375,53.4 L13.359375,50.4333333 L7.421875,50.4333333 L7.421875,53.4 Z M22.265625,53.4 L25.234375,53.4 L25.234375,50.4333333 L22.265625,50.4333333 L22.265625,53.4 Z M16.328125,53.4 L19.296875,53.4 L19.296875,50.4333333 L16.328125,50.4333333 L16.328125,53.4 Z M28.203125,53.4 L31.171875,53.4 L31.171875,50.4333333 L28.203125,50.4333333 L28.203125,53.4 Z M34.140625,53.4 L37.109375,53.4 L37.109375,50.4333333 L34.140625,50.4333333 L34.140625,53.4 Z M78.671875,53.4 L87.578125,53.4 L87.578125,50.4333333 L78.671875,50.4333333 L78.671875,53.4 Z M7.421875,59.3333333 L16.328125,59.3333333 L16.328125,56.3666667 L7.421875,56.3666667 L7.421875,59.3333333 Z M25.234375,59.3333333 L28.203125,59.3333333 L28.203125,56.3666667 L25.234375,56.3666667 L25.234375,59.3333333 Z M19.296875,59.3333333 L22.265625,59.3333333 L22.265625,56.3666667 L19.296875,56.3666667 L19.296875,59.3333333 Z M31.171875,59.3333333 L34.140625,59.3333333 L34.140625,56.3666667 L31.171875,56.3666667 L31.171875,59.3333333 Z M37.109375,59.3333333 L40.078125,59.3333333 L40.078125,56.3666667 L37.109375,56.3666667 L37.109375,59.3333333 Z M66.796875,59.3333333 L69.765625,59.3333333 L69.765625,56.3666667 L66.796875,56.3666667 L66.796875,59.3333333 Z M66.796875,53.4 L69.765625,53.4 L69.765625,50.4333333 L66.796875,50.4333333 L66.796875,53.4 Z M78.671875,59.3333333 L81.640625,59.3333333 L81.640625,56.3666667 L78.671875,56.3666667 L78.671875,59.3333333 Z M84.609375,59.3333333 L87.578125,59.3333333 L87.578125,56.3666667 L84.609375,56.3666667 L84.609375,59.3333333 Z M29.6875,66.75 L62.34375,66.75 L62.34375,63.7833333 L29.6875,63.7833333 L29.6875,66.75 Z M23.75,66.75 L26.71875,66.75 L26.71875,63.7833333 L23.75,63.7833333 L23.75,66.75 Z M14.84375,66.75 L20.78125,66.75 L20.78125,63.7833333 L14.84375,63.7833333 L14.84375,66.75 Z M78.671875,66.75 L81.640625,66.75 L81.640625,63.7833333 L78.671875,63.7833333 L78.671875,66.75 Z M66.796875,66.75 L74.21875,66.75 L74.21875,63.7833333 L66.796875,63.7833333 L66.796875,66.75 Z M2.96875,14.8333333 L14.84375,14.8333333 L14.84375,11.8666667 L2.96875,11.8666667 L2.96875,14.8333333 Z M2.96875,26.7 L11.875,26.7 L11.875,23.7333333 L2.96875,23.7333333 L2.96875,26.7 Z M17.8125,14.8333333 L29.6875,14.8333333 L29.6875,11.8666667 L17.8125,11.8666667 L17.8125,14.8333333 Z M32.65625,14.8333333 L35.625,14.8333333 L35.625,11.8666667 L32.65625,11.8666667 L32.65625,14.8333333 Z M2.96875,20.7666667 L8.90625,20.7666667 L8.90625,17.8 L2.96875,17.8 L2.96875,20.7666667 Z M11.875,20.7666667 L20.78125,20.7666667 L20.78125,17.8 L11.875,17.8 L11.875,20.7666667 Z M23.75,20.7666667 L26.71875,20.7666667 L26.71875,17.8 L23.75,17.8 L23.75,20.7666667 Z M0,8.9 L8.90625,8.9 L8.90625,5.93333333 L0,5.93333333 L0,8.9 Z" id="Combined-Shape" fill="#0EB1C2" mask="url(#mask-2)"></path>
                <path d="M46.015625,56.3666667 L54.921875,56.3666667 L54.921875,55.4974333 L52.3880469,52.9653833 C51.8076563,52.3854 51.8076563,51.4479333 52.3880469,50.86795 L54.921875,48.3359 L54.921875,30.2807667 L52.3880469,27.7472333 C52.1089844,27.46985 51.953125,27.0930833 51.953125,26.6985167 C51.953125,26.3054333 52.1089844,25.9286667 52.3880469,25.6498 L54.921875,23.1192333 L54.921875,22.25 L46.015625,22.25 L46.015625,23.1192333 L48.5494531,25.6512833 C49.1298437,26.2312667 49.1298437,27.1687333 48.5494531,27.7487167 L46.015625,30.2807667 L46.015625,48.3359 L48.5494531,50.86795 C49.1298437,51.4479333 49.1298437,52.3854 48.5494531,52.9653833 L46.015625,55.4974333 L46.015625,56.3666667 Z M51.953125,59.3333333 L56.40625,59.3333333 C57.225625,59.3333333 57.890625,58.6688 57.890625,57.85 L57.890625,54.8833333 C57.890625,54.49025 57.7332813,54.112 57.4557031,53.8346167 L55.5364063,51.9166667 L57.4557031,49.9987167 C57.7332813,49.7213333 57.890625,49.3430833 57.890625,48.95 L57.890625,29.6666667 C57.890625,29.2735833 57.7332813,28.8953333 57.4557031,28.61795 L55.5364063,26.6985167 L57.4557031,24.78205 C57.7332813,24.5046667 57.890625,24.1264167 57.890625,23.7333333 L57.890625,20.7666667 C57.890625,19.9478667 57.225625,19.2833333 56.40625,19.2833333 L44.53125,19.2833333 C43.711875,19.2833333 43.046875,19.9478667 43.046875,20.7666667 L43.046875,23.7333333 C43.046875,24.1264167 43.2027344,24.5046667 43.4817969,24.78205 L45.4010938,26.7 L43.4817969,28.61795 C43.2027344,28.8953333 43.046875,29.2735833 43.046875,29.6666667 L43.046875,48.95 C43.046875,49.3430833 43.2027344,49.7213333 43.4817969,49.9987167 L45.4010938,51.9166667 L43.4817969,53.8346167 C43.2027344,54.112 43.046875,54.49025 43.046875,54.8833333 L43.046875,57.85 C43.046875,58.6688 43.711875,59.3333333 44.53125,59.3333333 L48.984375,59.3333333 L48.984375,89 L51.953125,89 L51.953125,59.3333333 Z" id="Combined-Shape" fill="#0E92C2" mask="url(#mask-2)"></path>
            </g>
        </g>
    </g>
</svg>