<?xml version="1.0" encoding="UTF-8" standalone="no"?>
<svg width="98px" height="98px" viewBox="0 0 98 98" version="1.1" xmlns="http://www.w3.org/2000/svg" xmlns:xlink="http://www.w3.org/1999/xlink">
    <!-- Generator: Sketch 39.1 (31720) - http://www.bohemiancoding.com/sketch -->
    <title>Benefits Icon High Quality@3x</title>
    <desc>Created with Sketch.</desc>
    <defs>
        <linearGradient x1="96.5545942%" y1="7.20621419%" x2="2.73784293%" y2="116.42462%" id="linearGradient-1">
            <stop stop-color="#0DB1C2" offset="0%"></stop>
            <stop stop-color="#2896C1" offset="27.324489%"></stop>
            <stop stop-color="#2896C1" offset="27.324489%"></stop>
            <stop stop-color="#3B83C0" offset="46.5977097%"></stop>
            <stop stop-color="#417DC0" offset="52.5172636%"></stop>
            <stop stop-color="#714EBD" offset="100%"></stop>
        </linearGradient>
        <polygon id="path-2" points="0 98 98 98 98 0 0 0"></polygon>
    </defs>
    <g id="Page-1" stroke="none" stroke-width="1" fill="none" fill-rule="evenodd">
        <g id="Home@2x" transform="translate(-105.000000, -9445.000000)">
            <g id="Benefits-Icon-High-Quality" transform="translate(105.000000, 9445.000000)">
                <path d="M59.0843531,85.7498469 L56.0218531,88.8123469 L41.9772281,88.8123469 L38.9162594,85.7498469 L-0.000459375,85.7498469 L-0.000459375,90.9790656 L7.02185313,97.9998469 L90.9787594,97.9998469 L97.9995406,90.9790656 L97.9995406,85.7498469 L59.0843531,85.7498469 Z M57.2897281,91.8763781 L60.3522281,88.8123469 L94.9370406,88.8123469 L94.9370406,89.7096594 L89.7093531,94.9373469 L8.29125938,94.9373469 L3.06204063,89.7096594 L3.06204063,88.8123469 L37.6483844,88.8123469 L40.7093531,91.8763781 L57.2897281,91.8763781 Z" id="Fill-1" fill="#0E92C2"></path>
                <g id="Group-20">
                    <path d="M9.1875,82.6875 L6.125,82.6875 L6.125,36.75 C6.125,33.3720625 8.8720625,30.625 12.25,30.625 L33.6875,30.625 L33.6875,33.6875 L12.25,33.6875 C10.5610312,33.6875 9.1875,35.0610312 9.1875,36.75 L9.1875,82.6875 L9.1875,82.6875 Z" id="Fill-2" fill="#0E92C2"></path>
                    <path d="M91.875,82.6875 L88.8125,82.6875 L88.8125,36.75 C88.8125,35.0610312 87.4389688,33.6875 85.75,33.6875 L64.3125,33.6875 L64.3125,30.625 L85.75,30.625 C89.1279375,30.625 91.875,33.3720625 91.875,36.75 L91.875,82.6875 Z" id="Fill-4" fill="#0E92C2"></path>
                    <mask id="mask-3" fill="white">
                        <use xlink:href="#path-2"></use>
                    </mask>
                    <g id="Clip-7"></g>
                    <polygon id="Fill-6" fill="#0EB1C2" mask="url(#mask-3)" points="41.34375 79.625 44.40625 79.625 44.40625 76.5625 41.34375 76.5625"></polygon>
                    <polygon id="Fill-8" fill="#0E92C2" mask="url(#mask-3)" points="47.46875 79.625 50.53125 79.625 50.53125 76.5625 47.46875 76.5625"></polygon>
                    <polygon id="Fill-9" fill="#0EB1C2" mask="url(#mask-3)" points="53.59375 79.625 56.65625 79.625 56.65625 76.5625 53.59375 76.5625"></polygon>
                    <polygon id="Fill-10" fill="#0E92C2" mask="url(#mask-3)" points="85.75 79.625 59.71875 79.625 59.71875 76.5625 82.6875 76.5625 82.6875 39.8125 64.3125 39.8125 64.3125 36.75 85.75 36.75"></polygon>
                    <polygon id="Fill-11" fill="#0E92C2" mask="url(#mask-3)" points="38.28125 79.625 12.25 79.625 12.25 36.75 33.6875 36.75 33.6875 39.8125 15.3125 39.8125 15.3125 76.5625 38.28125 76.5625"></polygon>
                    <path d="M49,15.3125 C46.4673125,15.3125 44.40625,17.3735625 44.40625,19.90625 C44.40625,22.4389375 46.4673125,24.5 49,24.5 C51.5326875,24.5 53.59375,22.4389375 53.59375,19.90625 C53.59375,17.3735625 51.5326875,15.3125 49,15.3125 M49,27.5625 C44.7783437,27.5625 41.34375,24.1279062 41.34375,19.90625 C41.34375,15.6845938 44.7783437,12.25 49,12.25 C53.2216562,12.25 56.65625,15.6845938 56.65625,19.90625 C56.65625,24.1279062 53.2216562,27.5625 49,27.5625" id="Fill-12" fill="#0EB1C2" mask="url(#mask-3)"></path>
                    <path d="M56.65625,73.5 L53.59375,73.5 L53.59375,53.59375 L58.1875,53.59375 L58.1875,35.21875 C58.1875,34.3735 57.4999688,33.6875 56.65625,33.6875 L54.2276875,33.6875 L49,38.9151875 L43.7723125,33.6875 L41.34375,33.6875 C40.5000312,33.6875 39.8125,34.3735 39.8125,35.21875 L39.8125,53.59375 L44.40625,53.59375 L44.40625,73.5 L41.34375,73.5 L41.34375,56.65625 L36.75,56.65625 L36.75,35.21875 C36.75,32.6860625 38.8110625,30.625 41.34375,30.625 L45.0401875,30.625 L49,34.5848125 L52.9598125,30.625 L56.65625,30.625 C59.1889375,30.625 61.25,32.6860625 61.25,35.21875 L61.25,56.65625 L56.65625,56.65625 L56.65625,73.5 Z" id="Fill-13" fill="#0EB1C2" mask="url(#mask-3)"></path>
                    <polygon id="Fill-14" fill="#0EB1C2" mask="url(#mask-3)" points="62.78125 22.96875 68.90625 22.96875 68.90625 19.90625 62.78125 19.90625"></polygon>
                    <polygon id="Fill-15" fill="#0EB1C2" mask="url(#mask-3)" points="60.8013437 11.8013437 58.6361562 9.63615625 63.2299062 5.04240625 65.3950937 7.20759375"></polygon>
                    <polygon id="Fill-16" fill="#0EB1C2" mask="url(#mask-3)" points="29.09375 22.96875 35.21875 22.96875 35.21875 19.90625 29.09375 19.90625"></polygon>
                    <polygon id="Fill-17" fill="#0EB1C2" mask="url(#mask-3)" points="37.1986562 11.8013437 32.6049062 7.20759375 34.7700937 5.04240625 39.3638437 9.63615625"></polygon>
                    <polygon id="Fill-18" fill="#0EB1C2" mask="url(#mask-3)" points="47.46875 6.125 50.53125 6.125 50.53125 0 47.46875 0"></polygon>
                    <polygon id="Fill-19" fill="#0EB1C2" mask="url(#mask-3)" points="47.46875 44.40625 50.53125 44.40625 50.53125 41.34375 47.46875 41.34375"></polygon>
                </g>
            </g>
        </g>
    </g>
</svg>