<?xml version="1.0" encoding="UTF-8" standalone="no"?>
<svg width="95px" height="95px" viewBox="0 0 95 95" version="1.1" xmlns="http://www.w3.org/2000/svg" xmlns:xlink="http://www.w3.org/1999/xlink">
    <!-- Generator: Sketch 39.1 (31720) - http://www.bohemiancoding.com/sketch -->
    <title>Cloud Icon Color Home@3x</title>
    <desc>Created with Sketch.</desc>
    <defs>
        <polygon id="path-1" points="0 95 95 95 95 0 0 0"></polygon>
    </defs>
    <g id="Page-1" stroke="none" stroke-width="1" fill="none" fill-rule="evenodd">
        <g id="Home@2x" transform="translate(-443.000000, -7279.000000)">
            <g id="Cloud-Icon-Color-Home" transform="translate(443.000000, 7279.000000)">
                <path d="M75.703125,62.34375 L69.765625,62.34375 L69.765625,59.375 L75.703125,59.375 C84.7058594,59.375 92.03125,52.0496094 92.03125,43.046875 C92.03125,34.5844531 86.2882031,28.203125 78.671875,28.203125 L77.1875,28.203125 L77.1875,26.71875 C77.1875,20.9786719 74.0673438,14.84375 65.3125,14.84375 L62.9538281,14.84375 L62.5292969,14.0778125 C58.6758594,7.12203125 51.3935156,2.96875 43.046875,2.96875 C30.7696094,2.96875 20.78125,12.9571094 20.78125,25.234375 L20.78125,26.71875 L19.296875,26.71875 C10.2941406,26.71875 2.96875,34.0441406 2.96875,43.046875 C2.96875,52.0496094 10.2941406,59.375 19.296875,59.375 L25.234375,59.375 L25.234375,62.34375 L19.296875,62.34375 C8.65539062,62.34375 0,53.686875 0,43.046875 C0,32.8922656 7.88351563,24.5441406 17.8525781,23.8034375 C18.59625,10.5509375 29.6117969,0 43.046875,0 C52.1802344,0 60.2017969,4.42195312 64.6846094,11.875 L65.3125,11.875 C73.8461719,11.875 79.5224219,17.0940625 80.1057813,25.2952344 C88.6914062,26.0389063 95,33.4207031 95,43.046875 C95,53.686875 86.343125,62.34375 75.703125,62.34375 L75.703125,62.34375 Z" id="Fill-1" fill="#5356BD"></path>
                <mask id="mask-2" fill="white">
                    <use xlink:href="#path-1"></use>
                </mask>
                <g id="Clip-4"></g>
                <path d="M37.109375,62.34375 L57.890625,62.34375 L57.890625,41.5625 L37.109375,41.5625 L37.109375,62.34375 Z M34.140625,65.3125 L60.859375,65.3125 L60.859375,38.59375 L34.140625,38.59375 L34.140625,65.3125 Z" id="Fill-3" fill="#5356BD" mask="url(#mask-2)"></path>
                <polygon id="Fill-5" fill="#5356BD" mask="url(#mask-2)" points="37.109375 40.078125 40.078125 40.078125 40.078125 32.65625 37.109375 32.65625"></polygon>
                <polygon id="Fill-6" fill="#5356BD" mask="url(#mask-2)" points="43.046875 40.078125 46.015625 40.078125 46.015625 32.65625 43.046875 32.65625"></polygon>
                <polygon id="Fill-7" fill="#5356BD" mask="url(#mask-2)" points="48.984375 40.078125 51.953125 40.078125 51.953125 32.65625 48.984375 32.65625"></polygon>
                <polygon id="Fill-8" fill="#5356BD" mask="url(#mask-2)" points="54.921875 40.078125 57.890625 40.078125 57.890625 32.65625 54.921875 32.65625"></polygon>
                <polygon id="Fill-9" fill="#5356BD" mask="url(#mask-2)" points="43.046875 95 46.015625 95 46.015625 63.828125 43.046875 63.828125"></polygon>
                <polygon id="Fill-10" fill="#5356BD" mask="url(#mask-2)" points="48.984375 95 51.953125 95 51.953125 63.828125 48.984375 63.828125"></polygon>
                <polygon id="Fill-11" fill="#5356BD" mask="url(#mask-2)" points="59.375 44.53125 66.796875 44.53125 66.796875 41.5625 59.375 41.5625"></polygon>
                <polygon id="Fill-12" fill="#5356BD" mask="url(#mask-2)" points="59.375 50.46875 66.796875 50.46875 66.796875 47.5 59.375 47.5"></polygon>
                <polygon id="Fill-13" fill="#5356BD" mask="url(#mask-2)" points="59.375 56.40625 66.796875 56.40625 66.796875 53.4375 59.375 53.4375"></polygon>
                <polygon id="Fill-14" fill="#5356BD" mask="url(#mask-2)" points="59.375 62.34375 66.796875 62.34375 66.796875 59.375 59.375 59.375"></polygon>
                <polygon id="Fill-15" fill="#5356BD" mask="url(#mask-2)" points="28.203125 44.53125 35.625 44.53125 35.625 41.5625 28.203125 41.5625"></polygon>
                <polygon id="Fill-16" fill="#5356BD" mask="url(#mask-2)" points="28.203125 50.46875 35.625 50.46875 35.625 47.5 28.203125 47.5"></polygon>
                <polygon id="Fill-17" fill="#5356BD" mask="url(#mask-2)" points="28.203125 56.40625 35.625 56.40625 35.625 53.4375 28.203125 53.4375"></polygon>
                <polygon id="Fill-18" fill="#5356BD" mask="url(#mask-2)" points="28.203125 62.34375 35.625 62.34375 35.625 59.375 28.203125 59.375"></polygon>
                <path d="M46.015625,53.4375 L48.984375,53.4375 L48.984375,50.46875 L46.015625,50.46875 L46.015625,53.4375 Z M43.046875,56.40625 L51.953125,56.40625 L51.953125,47.5 L43.046875,47.5 L43.046875,56.40625 Z" id="Fill-19" fill="#5356BD" mask="url(#mask-2)"></path>
                <polygon id="Fill-20" fill="#5356BD" mask="url(#mask-2)" points="40.078125 80.15625 0 80.15625 0 77.1875 37.109375 77.1875 37.109375 63.828125 40.078125 63.828125"></polygon>
                <polygon id="Fill-21" fill="#5356BD" mask="url(#mask-2)" points="95 80.15625 54.921875 80.15625 54.921875 63.828125 57.890625 63.828125 57.890625 77.1875 95 77.1875"></polygon>
                <polygon id="Fill-22" fill="#5356BD" mask="url(#mask-2)" points="37.109375 29.6875 40.078125 29.6875 40.078125 26.71875 37.109375 26.71875"></polygon>
                <polygon id="Fill-23" fill="#5356BD" mask="url(#mask-2)" points="43.046875 29.6875 46.015625 29.6875 46.015625 26.71875 43.046875 26.71875"></polygon>
                <polygon id="Fill-24" fill="#5356BD" mask="url(#mask-2)" points="43.046875 23.75 46.015625 23.75 46.015625 20.78125 43.046875 20.78125"></polygon>
                <polygon id="Fill-25" fill="#5356BD" mask="url(#mask-2)" points="48.984375 23.75 51.953125 23.75 51.953125 20.78125 48.984375 20.78125"></polygon>
                <polygon id="Fill-26" fill="#5356BD" mask="url(#mask-2)" points="48.984375 29.6875 51.953125 29.6875 51.953125 26.71875 48.984375 26.71875"></polygon>
                <polygon id="Fill-27" fill="#5356BD" mask="url(#mask-2)" points="54.921875 29.6875 57.890625 29.6875 57.890625 26.71875 54.921875 26.71875"></polygon>
                <polygon id="Fill-28" fill="#5356BD" mask="url(#mask-2)" points="22.265625 44.53125 25.234375 44.53125 25.234375 41.5625 22.265625 41.5625"></polygon>
                <polygon id="Fill-29" fill="#5356BD" mask="url(#mask-2)" points="16.328125 44.53125 19.296875 44.53125 19.296875 41.5625 16.328125 41.5625"></polygon>
                <polygon id="Fill-30" fill="#5356BD" mask="url(#mask-2)" points="22.265625 50.46875 25.234375 50.46875 25.234375 47.5 22.265625 47.5"></polygon>
                <polygon id="Fill-31" fill="#5356BD" mask="url(#mask-2)" points="16.328125 50.46875 19.296875 50.46875 19.296875 47.5 16.328125 47.5"></polygon>
                <polygon id="Fill-32" fill="#5356BD" mask="url(#mask-2)" points="22.265625 56.40625 25.234375 56.40625 25.234375 53.4375 22.265625 53.4375"></polygon>
                <polygon id="Fill-33" fill="#5356BD" mask="url(#mask-2)" points="10.390625 44.53125 13.359375 44.53125 13.359375 41.5625 10.390625 41.5625"></polygon>
                <polygon id="Fill-34" fill="#5356BD" mask="url(#mask-2)" points="69.765625 44.53125 72.734375 44.53125 72.734375 41.5625 69.765625 41.5625"></polygon>
                <polygon id="Fill-35" fill="#5356BD" mask="url(#mask-2)" points="75.703125 44.53125 78.671875 44.53125 78.671875 41.5625 75.703125 41.5625"></polygon>
                <polygon id="Fill-36" fill="#5356BD" mask="url(#mask-2)" points="69.765625 50.46875 72.734375 50.46875 72.734375 47.5 69.765625 47.5"></polygon>
                <polygon id="Fill-37" fill="#5356BD" mask="url(#mask-2)" points="75.703125 50.46875 78.671875 50.46875 78.671875 47.5 75.703125 47.5"></polygon>
                <polygon id="Fill-38" fill="#5356BD" mask="url(#mask-2)" points="69.765625 56.40625 72.734375 56.40625 72.734375 53.4375 69.765625 53.4375"></polygon>
                <polygon id="Fill-39" fill="#5356BD" mask="url(#mask-2)" points="81.640625 44.53125 84.609375 44.53125 84.609375 41.5625 81.640625 41.5625"></polygon>
            </g>
        </g>
    </g>
</svg>