<?xml version="1.0" encoding="UTF-8" standalone="no"?>
<svg width="76px" height="77px" viewBox="0 0 76 77" version="1.1" xmlns="http://www.w3.org/2000/svg" xmlns:xlink="http://www.w3.org/1999/xlink">
    <!-- Generator: Sketch 39.1 (31720) - http://www.bohemiancoding.com/sketch -->
    <title>Network Icon Solutions@3x</title>
    <desc>Created with Sketch.</desc>
    <defs>
        <polygon id="path-1" points="0 76.7069379 75.7703787 76.7069379 75.7703787 0 0 0"></polygon>
    </defs>
    <g id="Page-1" stroke="none" stroke-width="1" fill="none" fill-rule="evenodd">
        <g id="Home@2x" transform="translate(-50.000000, -939.000000)">
            <g id="Group-9" transform="translate(18.000000, 939.000000)">
                <g id="Network-Icon-Solutions" transform="translate(32.000000, 0.000000)">
                    <path d="M37.8851893,2.39709181 C35.2734791,2.39709181 33.1495407,4.54728316 33.1495407,7.19127543 C33.1495407,9.83526769 35.2734791,11.985459 37.8851893,11.985459 C40.4968996,11.985459 42.620838,9.83526769 42.620838,7.19127543 C42.620838,4.54728316 40.4968996,2.39709181 37.8851893,2.39709181 L37.8851893,2.39709181 Z M37.8851893,14.3825509 C33.967624,14.3825509 30.7817163,11.1572638 30.7817163,7.19127543 C30.7817163,3.22528703 33.967624,0 37.8851893,0 C41.8027547,0 44.9886623,3.22528703 44.9886623,7.19127543 C44.9886623,11.1572638 41.8027547,14.3825509 37.8851893,14.3825509 L37.8851893,14.3825509 Z" id="Fill-1" fill="#FFFFFF"></path>
                    <path d="M60.3795205,10.7869131 C57.7678103,10.7869131 55.6438718,12.9371045 55.6438718,15.5810968 C55.6438718,18.225089 57.7678103,20.3752804 60.3795205,20.3752804 C62.9912307,20.3752804 65.1151692,18.225089 65.1151692,15.5810968 C65.1151692,12.9371045 62.9912307,10.7869131 60.3795205,10.7869131 M60.3795205,22.7723722 C56.4619551,22.7723722 53.2760475,19.5470852 53.2760475,15.5810968 C53.2760475,11.6151084 56.4619551,8.38982133 60.3795205,8.38982133 C64.2970859,8.38982133 67.4829935,11.6151084 67.4829935,15.5810968 C67.4829935,19.5470852 64.2970859,22.7723722 60.3795205,22.7723722" id="Fill-3" fill="#FFFFFF"></path>
                    <path d="M68.6669057,33.5592853 C66.0551954,33.5592853 63.931257,35.7094767 63.931257,38.3534689 C63.931257,40.9974612 66.0551954,43.1476526 68.6669057,43.1476526 C71.2786159,43.1476526 73.4025543,40.9974612 73.4025543,38.3534689 C73.4025543,35.7094767 71.2786159,33.5592853 68.6669057,33.5592853 M68.6669057,45.5447444 C64.7493403,45.5447444 61.5634327,42.3194573 61.5634327,38.3534689 C61.5634327,34.3874805 64.7493403,31.1621935 68.6669057,31.1621935 C72.584471,31.1621935 75.7703787,34.3874805 75.7703787,38.3534689 C75.7703787,42.3194573 72.584471,45.5447444 68.6669057,45.5447444" id="Fill-5" fill="#FFFFFF"></path>
                    <path d="M60.3795205,56.3316575 C57.7678103,56.3316575 55.6438718,58.4818489 55.6438718,61.1258411 C55.6438718,63.7698334 57.7678103,65.9200247 60.3795205,65.9200247 C62.9912307,65.9200247 65.1151692,63.7698334 65.1151692,61.1258411 C65.1151692,58.4818489 62.9912307,56.3316575 60.3795205,56.3316575 M60.3795205,68.3171165 C56.4619551,68.3171165 53.2760475,65.0918295 53.2760475,61.1258411 C53.2760475,57.1598527 56.4619551,53.9345657 60.3795205,53.9345657 C64.2970859,53.9345657 67.4829935,57.1598527 67.4829935,61.1258411 C67.4829935,65.0918295 64.2970859,68.3171165 60.3795205,68.3171165" id="Fill-7" fill="#FFFFFF"></path>
                    <path d="M15.3908582,10.7869131 C12.7791479,10.7869131 10.6552095,12.9371045 10.6552095,15.5810968 C10.6552095,18.225089 12.7791479,20.3752804 15.3908582,20.3752804 C18.0025684,20.3752804 20.1265068,18.225089 20.1265068,15.5810968 C20.1265068,12.9371045 18.0025684,10.7869131 15.3908582,10.7869131 M15.3908582,22.7723722 C11.4732928,22.7723722 8.28738517,19.5470852 8.28738517,15.5810968 C8.28738517,11.6151084 11.4732928,8.38982133 15.3908582,8.38982133 C19.3084235,8.38982133 22.4943312,11.6151084 22.4943312,15.5810968 C22.4943312,19.5470852 19.3084235,22.7723722 15.3908582,22.7723722" id="Fill-9" fill="#FFFFFF"></path>
                    <path d="M7.103473,33.5592853 C4.49176276,33.5592853 2.36782433,35.7094767 2.36782433,38.3534689 C2.36782433,40.9974612 4.49176276,43.1476526 7.103473,43.1476526 C9.71518324,43.1476526 11.8391217,40.9974612 11.8391217,38.3534689 C11.8391217,35.7094767 9.71518324,33.5592853 7.103473,33.5592853 M7.103473,45.5447444 C3.18590764,45.5447444 0,42.3194573 0,38.3534689 C0,34.3874805 3.18590764,31.1621935 7.103473,31.1621935 C11.0210384,31.1621935 14.206946,34.3874805 14.206946,38.3534689 C14.206946,42.3194573 11.0210384,45.5447444 7.103473,45.5447444" id="Fill-11" fill="#FFFFFF"></path>
                    <path d="M15.3908582,56.3316575 C12.7791479,56.3316575 10.6552095,58.4818489 10.6552095,61.1258411 C10.6552095,63.7698334 12.7791479,65.9200247 15.3908582,65.9200247 C18.0025684,65.9200247 20.1265068,63.7698334 20.1265068,61.1258411 C20.1265068,58.4818489 18.0025684,56.3316575 15.3908582,56.3316575 M15.3908582,68.3171165 C11.4732928,68.3171165 8.28738517,65.0918295 8.28738517,61.1258411 C8.28738517,57.1598527 11.4732928,53.9345657 15.3908582,53.9345657 C19.3084235,53.9345657 22.4943312,57.1598527 22.4943312,61.1258411 C22.4943312,65.0918295 19.3084235,68.3171165 15.3908582,68.3171165" id="Fill-13" fill="#FFFFFF"></path>
                    <path d="M37.8851893,64.7214788 C35.2734791,64.7214788 33.1495407,66.8716702 33.1495407,69.5156624 C33.1495407,72.1596547 35.2734791,74.3098461 37.8851893,74.3098461 C40.4968996,74.3098461 42.620838,72.1596547 42.620838,69.5156624 C42.620838,66.8716702 40.4968996,64.7214788 37.8851893,64.7214788 M37.8851893,76.7069379 C33.967624,76.7069379 30.7817163,73.4816508 30.7817163,69.5156624 C30.7817163,65.549674 33.967624,62.324387 37.8851893,62.324387 C41.8027547,62.324387 44.9886623,65.549674 44.9886623,69.5156624 C44.9886623,73.4816508 41.8027547,76.7069379 37.8851893,76.7069379" id="Fill-15" fill="#FFFFFF"></path>
                    <path d="M33.0628783,21.833671 L37.8849526,23.89517 L42.7070268,21.833671 L37.8849526,10.2736958 L33.0628783,21.833671 Z M32.1429785,24.0425911 L30.9709055,26.8507842 L34.8411144,25.1967908 L32.1429785,24.0425911 Z M40.9299746,25.1967908 L44.7989996,26.8507842 L43.6281105,24.0425911 L40.9299746,25.1967908 Z M17.6151923,17.8329248 L22.8267737,30.3313615 L27.8430096,28.1871629 L29.9610284,23.1089239 L17.6151923,17.8329248 Z M47.9280795,28.1871629 L52.9431314,30.3313615 L58.1547128,17.8329248 L45.8100606,23.1089239 L47.9280795,28.1871629 Z M23.7490413,32.5402816 L24.8891487,35.2717677 L26.5217636,31.3537211 L23.7490413,32.5402816 Z M49.2481415,31.3537211 L50.8819403,35.2717677 L52.0220477,32.5402816 L49.2481415,31.3537211 Z M10.1482583,38.3532292 L21.5670912,43.2349067 L23.6034201,38.3532292 L21.5670912,33.4715518 L10.1482583,38.3532292 Z M52.1676689,38.3532292 L54.202814,43.2349067 L65.6228307,38.3532292 L54.202814,33.4715518 L52.1676689,38.3532292 Z M23.7490413,44.1673754 L26.5217636,45.3527373 L24.8891487,41.4358893 L23.7490413,44.1673754 Z M50.8819403,41.4358893 L49.2481415,45.3527373 L52.0220477,44.1673754 L50.8819403,41.4358893 Z M29.6508434,46.689116 L37.8849526,50.2104439 L46.1190617,46.689116 L49.5973956,38.3532292 L46.1190617,30.0173425 L37.8849526,26.4972131 L29.6508434,30.0173425 L26.1736934,38.3532292 L29.6508434,46.689116 Z M30.9709055,49.8568728 L32.1429785,52.6650659 L34.8411144,51.5108662 L30.9709055,49.8568728 Z M40.9299746,51.5108662 L43.6281105,52.6650659 L44.7989996,49.8568728 L40.9299746,51.5108662 Z M22.8267737,46.3762955 L17.6151923,58.8735337 L29.9610284,53.5975346 L27.8430096,48.5204941 L22.8267737,46.3762955 Z M45.8100606,53.5975346 L58.1547128,58.8735337 L52.9431314,46.3762955 L47.9280795,48.5204941 L45.8100606,53.5975346 Z M33.0628783,54.8727874 L37.8849526,66.4339612 L42.7070268,54.8727874 L37.8849526,52.812487 L33.0628783,54.8727874 Z M37.8849526,70.7139686 C37.4090199,70.7139686 36.9804437,70.4263176 36.7945695,69.9816571 L30.8821121,55.8052561 L15.8511632,62.2294622 C15.4083801,62.4212295 14.8933783,62.316956 14.5535955,61.9729734 C14.2126288,61.6277921 14.1131802,61.1100203 14.3002383,60.6605656 L20.6471914,45.4426282 L6.64269439,39.45709 C6.20346297,39.2701168 5.91932405,38.8362432 5.91932405,38.3532292 C5.91932405,37.8714138 6.20346297,37.4375402 6.64269439,37.2493684 L20.6471914,31.2638302 L14.3002383,16.0470914 C14.1131802,15.5976367 14.2126288,15.0786663 14.5535955,14.7334851 C14.8945622,14.3883039 15.409564,14.2852289 15.8511632,14.4769963 L30.8821121,20.9024009 L36.7945695,6.72599991 C36.9804437,6.28014083 37.4090199,5.99248981 37.8849526,5.99248981 C38.3608852,5.99248981 38.7906454,6.28014083 38.9753357,6.72599991 L44.887793,20.9024009 L59.9187419,14.4769963 C60.361525,14.2840304 60.8753429,14.3883039 61.2163096,14.7334851 C61.5572763,15.0786663 61.656725,15.5976367 61.4696668,16.0470914 L55.1238976,31.2638302 L69.1272107,37.2493684 C69.5664421,37.4375402 69.8505811,37.8714138 69.8505811,38.3532292 C69.8505811,38.8362432 69.5664421,39.2701168 69.1272107,39.45709 L55.1238976,45.4426282 L61.3856091,60.4568128 C61.5122877,60.6485801 61.5868741,60.8775024 61.5868741,61.1256014 C61.5868741,61.7883973 61.0564815,62.3241473 60.402962,62.3241473 L60.3792837,62.3241473 C60.2241912,62.3241473 60.0667309,62.2941837 59.9187419,62.2294622 L44.887793,55.8052561 L38.9753357,69.9816571 C38.7906454,70.4263176 38.3608852,70.7139686 37.8849526,70.7139686 L37.8849526,70.7139686 Z" id="Fill-17" fill="#FFFFFF"></path>
                    <mask id="mask-2" fill="white">
                        <use xlink:href="#path-1"></use>
                    </mask>
                    <g id="Clip-20"></g>
                    <polygon id="Fill-19" fill="#FFFFFF" mask="url(#mask-2)" points="34.3334528 34.7578312 36.7012772 34.7578312 36.7012772 32.3607394 34.3334528 32.3607394"></polygon>
                    <polygon id="Fill-21" fill="#FFFFFF" mask="url(#mask-2)" points="39.0691015 34.7578312 41.4369258 34.7578312 41.4369258 32.3607394 39.0691015 32.3607394"></polygon>
                    <polygon id="Fill-22" fill="#FFFFFF" mask="url(#mask-2)" points="41.4369258 39.5520148 43.8047502 39.5520148 43.8047502 37.154923 41.4369258 37.154923"></polygon>
                    <polygon id="Fill-23" fill="#FFFFFF" mask="url(#mask-2)" points="36.7012772 39.5520148 39.0691015 39.5520148 39.0691015 37.154923 36.7012772 37.154923"></polygon>
                    <polygon id="Fill-24" fill="#FFFFFF" mask="url(#mask-2)" points="31.9656285 39.5520148 34.3334528 39.5520148 34.3334528 37.154923 31.9656285 37.154923"></polygon>
                    <polygon id="Fill-25" fill="#FFFFFF" mask="url(#mask-2)" points="39.0691015 44.3461985 41.4369258 44.3461985 41.4369258 41.9491066 39.0691015 41.9491066"></polygon>
                    <polygon id="Fill-26" fill="#FFFFFF" mask="url(#mask-2)" points="34.3334528 44.3461985 36.7012772 44.3461985 36.7012772 41.9491066 34.3334528 41.9491066"></polygon>
                </g>
            </g>
        </g>
    </g>
</svg>