<?xml version="1.0" encoding="UTF-8" standalone="no"?>
<svg width="95px" height="96px" viewBox="0 0 95 96" version="1.1" xmlns="http://www.w3.org/2000/svg" xmlns:xlink="http://www.w3.org/1999/xlink">
    <!-- Generator: Sketch 39.1 (31720) - http://www.bohemiancoding.com/sketch -->
    <title>Pro Icon Color Home@3x</title>
    <desc>Created with Sketch.</desc>
    <defs>
        <polygon id="path-1" points="0 95.7097907 95 95.7097907 95 0.711275089 0 0.711275089"></polygon>
    </defs>
    <g id="Page-1" stroke="none" stroke-width="1" fill="none" fill-rule="evenodd">
        <g id="Home@2x" transform="translate(-327.000000, -7568.000000)">
            <g id="Pro-Icon-Color-Home" transform="translate(327.000000, 7568.000000)">
                <path d="M32.65625,56.2347673 L47.5,64.3320329 L62.34375,56.2347673 L62.34375,40.1842204 L47.5,32.0869548 L32.65625,40.1842204 L32.65625,56.2347673 L32.65625,56.2347673 Z M47.5,67.507111 C47.2550781,67.507111 47.0101563,67.4462517 46.7889844,67.3260173 L30.4608594,58.4197673 C29.984375,58.1600017 29.6875,57.6597673 29.6875,57.116486 L29.6875,39.303986 C29.6875,38.7607048 29.984375,38.2604704 30.4608594,38.0007048 L46.7889844,29.0944548 C47.2298438,28.853986 47.7701562,28.853986 48.2095312,29.0944548 L64.5376562,38.0007048 C65.015625,38.2604704 65.3125,38.7607048 65.3125,39.303986 L65.3125,57.116486 C65.3125,57.6597673 65.015625,58.1600017 64.5376562,58.4197673 L48.2095312,67.3260173 C47.9898437,67.4462517 47.7449219,67.507111 47.5,67.507111 L47.5,67.507111 Z" id="Fill-1" fill="#0E92C2"></path>
                <path d="M47.5,49.6941657 C47.2550781,49.6941657 47.0101562,49.6333063 46.7889844,49.513072 L30.4608594,40.606822 L31.8814062,38.0002595 L47.5,46.5190876 L63.1171094,38.0002595 L64.5376562,40.606822 L48.2095312,49.513072 C47.9898437,49.6333063 47.7449219,49.6941657 47.5,49.6941657" id="Fill-3" fill="#0E92C2"></path>
                <mask id="mask-2" fill="white">
                    <use xlink:href="#path-1"></use>
                </mask>
                <g id="Clip-6"></g>
                <polygon id="Fill-5" fill="#0E92C2" mask="url(#mask-2)" points="46.015625 66.0222907 48.984375 66.0222907 48.984375 48.2097907 46.015625 48.2097907"></polygon>
                <polygon id="Fill-7" fill="#0E92C2" mask="url(#mask-2)" points="17.8125 49.6941657 20.78125 49.6941657 20.78125 46.7254157 17.8125 46.7254157"></polygon>
                <polygon id="Fill-8" fill="#0E92C2" mask="url(#mask-2)" points="25.234375 30.3972907 28.203125 30.3972907 28.203125 27.4285407 25.234375 27.4285407"></polygon>
                <polygon id="Fill-9" fill="#0E92C2" mask="url(#mask-2)" points="19.296875 39.3035407 22.265625 39.3035407 22.265625 36.3347907 19.296875 36.3347907"></polygon>
                <polygon id="Fill-10" fill="#0E92C2" mask="url(#mask-2)" points="19.296875 60.0847907 22.265625 60.0847907 22.265625 57.1160407 19.296875 57.1160407"></polygon>
                <polygon id="Fill-11" fill="#0E92C2" mask="url(#mask-2)" points="72.734375 39.3035407 75.703125 39.3035407 75.703125 36.3347907 72.734375 36.3347907"></polygon>
                <polygon id="Fill-12" fill="#0E92C2" mask="url(#mask-2)" points="72.734375 60.0847907 75.703125 60.0847907 75.703125 57.1160407 72.734375 57.1160407"></polygon>
                <polygon id="Fill-13" fill="#0E92C2" mask="url(#mask-2)" points="34.140625 24.4597907 37.109375 24.4597907 37.109375 21.4910407 34.140625 21.4910407"></polygon>
                <polygon id="Fill-14" fill="#0E92C2" mask="url(#mask-2)" points="57.890625 24.4597907 60.859375 24.4597907 60.859375 21.4910407 57.890625 21.4910407"></polygon>
                <polygon id="Fill-15" fill="#0E92C2" mask="url(#mask-2)" points="34.140625 74.9285407 37.109375 74.9285407 37.109375 71.9597907 34.140625 71.9597907"></polygon>
                <polygon id="Fill-16" fill="#0E92C2" mask="url(#mask-2)" points="57.890625 74.9285407 60.859375 74.9285407 60.859375 71.9597907 57.890625 71.9597907"></polygon>
                <polygon id="Fill-17" fill="#0E92C2" mask="url(#mask-2)" points="25.234375 68.9910407 28.203125 68.9910407 28.203125 66.0222907 25.234375 66.0222907"></polygon>
                <polygon id="Fill-18" fill="#0E92C2" mask="url(#mask-2)" points="66.796875 30.3972907 69.765625 30.3972907 69.765625 27.4285407 66.796875 27.4285407"></polygon>
                <polygon id="Fill-19" fill="#0E92C2" mask="url(#mask-2)" points="66.796875 68.9910407 69.765625 68.9910407 69.765625 66.0222907 66.796875 66.0222907"></polygon>
                <polygon id="Fill-20" fill="#0E92C2" mask="url(#mask-2)" points="74.21875 49.6941657 77.1875 49.6941657 77.1875 46.7254157 74.21875 46.7254157"></polygon>
                <polygon id="Fill-21" fill="#0E92C2" mask="url(#mask-2)" points="46.015625 21.4910407 48.984375 21.4910407 48.984375 18.5222907 46.015625 18.5222907"></polygon>
                <polygon id="Fill-22" fill="#0E92C2" mask="url(#mask-2)" points="46.015625 77.8972907 48.984375 77.8972907 48.984375 74.9285407 46.015625 74.9285407"></polygon>
                <path d="M44.3877109,92.6265954 C46.5192734,92.7809704 48.4816172,92.7809704 50.6116953,92.6265954 L52.4137266,85.0043298 L53.3948984,84.8484704 C54.2677109,84.7074548 55.1434922,84.5337829 56.0741953,84.312611 L57.0405234,84.0840173 L61.6302109,90.4490173 C63.5866172,89.7944079 65.5118516,88.9943298 67.3732578,88.0621423 L66.1219297,80.322611 L66.9665391,79.8015954 C67.7027891,79.348861 68.4642734,78.8367517 69.2302109,78.2815954 L70.0347422,77.6967517 L76.7099766,81.8203454 C78.2745078,80.4591735 79.7484922,78.9851892 81.1096641,77.4206579 L76.9875547,70.7454235 L77.5723984,69.9408923 C78.1231016,69.1808923 78.6337266,68.4194079 79.0938828,67.6742517 L79.6148984,66.8311267 L87.3514609,68.0839392 C88.2836484,66.2210485 89.0837266,64.2958142 89.7398203,62.3408923 L83.3748203,57.7497204 L83.6034141,56.7848767 C83.8231016,55.8541735 83.9982578,54.9783923 84.1377891,54.1055798 L84.2951328,53.1244079 L91.9173984,51.3223767 C91.9931016,50.2565954 92.0316953,49.2145642 92.0316953,48.2096423 C92.0316953,47.2047204 91.9931016,46.1626892 91.9173984,45.0969079 L84.2951328,43.296361 L84.1377891,42.3137048 C83.9982578,41.4423767 83.8231016,40.5665954 83.6034141,39.6358923 L83.3748203,38.6695642 L89.7398203,34.0798767 C89.0837266,32.1234704 88.2836484,30.198236 87.3514609,28.3353454 L79.6134141,29.5881579 L79.0923984,28.7435485 C78.6381797,28.0072985 78.1275547,27.2458142 77.5723984,26.4783923 L76.9875547,25.6753454 L81.1096641,18.9986267 C79.7484922,17.4355798 78.2745078,15.9615954 76.7099766,14.5989392 L70.0347422,18.7225329 L69.2302109,18.1376892 C68.4642734,17.5825329 67.7027891,17.0719079 66.9665391,16.6176892 L66.1219297,16.0966735 L67.3732578,8.35714228 C65.5118516,7.42643915 63.5866172,6.62487665 61.6302109,5.97026728 L57.0405234,12.3352673 L56.0741953,12.1066735 C55.1434922,11.8855017 54.2677109,11.7118298 53.3948984,11.5722985 L52.4137266,11.4149548 L50.6116953,3.79268915 C48.4816172,3.63979853 46.5192734,3.63979853 44.3877109,3.79268915 L42.5856797,11.4149548 L41.6045078,11.5722985 C40.7316953,11.7118298 39.8559141,11.8855017 38.9252109,12.1066735 L37.9603672,12.3352673 L33.3691953,5.97026728 C31.4142734,6.62487665 29.4890391,7.42643915 27.6261484,8.35714228 L28.8789609,16.0951892 L28.0343516,16.6162048 C27.2906797,17.0748767 26.5291953,17.586986 25.7691953,18.1376892 L24.9646641,18.7225329 L18.2894297,14.5989392 C16.7248984,15.9615954 15.2509141,17.4355798 13.8897422,18.9986267 L18.0133359,25.6753454 L17.4284922,26.4783923 C16.8733359,27.2458142 16.3612266,28.0072985 15.9084922,28.7435485 L15.3874766,29.5881579 L7.64794531,28.3353454 C6.71575781,30.198236 5.91567969,32.1234704 5.26107031,34.0798767 L11.6260703,38.6695642 L11.3959922,39.6358923 C11.1763047,40.5665954 11.0026328,41.4423767 10.8616172,42.3137048 L10.7057578,43.296361 L3.08349219,45.0969079 C3.00630469,46.1626892 2.96919531,47.2047204 2.96919531,48.2096423 C2.96919531,49.2145642 3.00630469,50.2565954 3.08349219,51.3223767 L10.7057578,53.1244079 L10.8616172,54.1055798 C11.0026328,54.9783923 11.1763047,55.8541735 11.3959922,56.7848767 L11.6260703,57.7497204 L5.26107031,62.3408923 C5.91567969,64.2958142 6.71575781,66.2210485 7.64794531,68.0839392 L15.3859922,66.8311267 L15.9070078,67.6742517 C16.3656797,68.4194079 16.8777891,69.1808923 17.4284922,69.9408923 L18.0133359,70.7454235 L13.8897422,77.4206579 C15.2509141,78.9851892 16.7248984,80.4591735 18.2894297,81.8203454 L24.9646641,77.6967517 L25.7691953,78.2815954 C26.5291953,78.8322985 27.2906797,79.3444079 28.0343516,79.8030798 L28.8789609,80.3240954 L27.6261484,88.0621423 C29.4890391,88.9943298 31.4142734,89.7944079 33.3691953,90.4490173 L37.9603672,84.0840173 L38.9252109,84.312611 C39.8559141,84.5337829 40.7316953,84.7074548 41.6045078,84.8484704 L42.5856797,85.0043298 L44.3877109,92.6265954 Z M47.5004453,95.7096423 C46.0739609,95.7096423 44.5777109,95.6369079 43.0547422,95.4973767 L41.9934141,95.3964392 L40.1513047,87.6079235 C39.8410703,87.5500329 39.5293516,87.4862048 39.2146641,87.4194079 L34.5240391,93.9254235 L33.5042734,93.6122204 C30.6913828,92.743861 27.9274766,91.5964392 25.2941953,90.1996423 L24.3531016,89.7008923 L25.6326328,81.7936267 C25.3713828,81.6214392 25.1071641,81.4447985 24.8429453,81.2622204 L18.0252109,85.4719079 L17.2058359,84.7935485 C14.9228672,82.9009704 12.8091172,80.785736 10.9165391,78.5042517 L10.2381797,77.6848767 L14.4478672,70.8671423 C14.2652891,70.6029235 14.0886484,70.3387048 13.9164609,70.0774548 L6.00919531,71.356986 L5.51044531,70.4158923 C4.11364844,67.782611 2.96622656,65.0187048 2.09786719,62.2058142 L1.78466406,61.1860485 L8.29067969,56.4954235 C8.22388281,56.180736 8.16005469,55.8675329 8.10216406,55.5587829 L0.313648437,53.7166735 L0.212710937,52.6553454 C0.0731796875,51.1323767 0.000445312499,49.6361267 0.000445312499,48.2096423 C0.000445312499,46.7831579 0.0731796875,45.2869079 0.212710937,43.7639392 L0.313648437,42.702611 L8.10216406,40.8605017 C8.16005469,40.5517517 8.22388281,40.2385485 8.29067969,39.923861 L1.78466406,35.233236 L2.09786719,34.2134704 C2.96622656,31.4005798 4.11364844,28.6381579 5.51044531,26.0033923 L6.00919531,25.0622985 L13.9164609,26.3433142 C14.0871641,26.0805798 14.2652891,25.816361 14.4478672,25.5521423 L10.2381797,18.7358923 L10.9165391,17.9150329 C12.8091172,15.6335485 14.9228672,13.5183142 17.2058359,11.6272204 L18.0252109,10.948861 L24.8429453,15.1585485 C25.1071641,14.974486 25.3713828,14.7978454 25.6326328,14.6256579 L24.3531016,6.71839228 L25.2941953,6.21964228 C27.9274766,4.82432978 30.6913828,3.67542353 33.5042734,2.80706415 L34.5240391,2.49386103 L39.2146641,8.99987665 C39.5293516,8.93307978 39.8410703,8.86925165 40.1513047,8.81136103 L41.9934141,1.0228454 L43.0547422,0.923392276 C46.1006797,0.641361026 48.8987266,0.641361026 51.9461484,0.923392276 L53.0074766,1.0228454 L54.8495859,8.81136103 C55.1583359,8.86925165 55.4715391,8.93307978 55.7862266,8.99987665 L60.4768516,2.49386103 L61.4951328,2.80706415 C64.3095078,3.67542353 67.0719297,4.82432978 69.7066953,6.21964228 L70.6477891,6.71839228 L69.3667734,14.6256579 C69.6295078,14.796361 69.8937266,14.974486 70.1564609,15.1585485 L76.9741953,10.948861 L77.7950547,11.6272204 C80.0765391,13.5183142 82.1917734,15.6335485 84.0828672,17.9150329 L84.7612266,18.7358923 L80.5515391,25.5521423 C80.7341172,25.816361 80.9137266,26.0805798 81.0844297,26.3433142 L88.9916953,25.0622985 L89.4904453,26.0033923 C90.8857578,28.6381579 92.0346641,31.4005798 92.9030234,34.2134704 L93.2162266,35.233236 L86.7102109,39.923861 C86.7770078,40.2385485 86.8408359,40.5517517 86.8987266,40.8605017 L94.6872422,42.702611 L94.7866953,43.7639392 C94.9277109,45.2869079 95.0004453,46.7831579 95.0004453,48.2096423 C95.0004453,49.6361267 94.9277109,51.1323767 94.7866953,52.6553454 L94.6872422,53.7166735 L86.8987266,55.5587829 C86.8408359,55.8675329 86.7770078,56.180736 86.7102109,56.4954235 L93.2162266,61.1860485 L92.9030234,62.2058142 C92.0346641,65.0187048 90.8857578,67.782611 89.4904453,70.4158923 L88.9916953,71.356986 L81.0844297,70.0774548 C80.9122422,70.3387048 80.7341172,70.6029235 80.5515391,70.8671423 L84.7612266,77.6848767 L84.0828672,78.5042517 C82.1917734,80.785736 80.0765391,82.9009704 77.7950547,84.7935485 L76.9741953,85.4719079 L70.1564609,81.2622204 C69.8937266,81.4447985 69.6295078,81.6229235 69.3667734,81.7936267 L70.6477891,89.7008923 L69.7066953,90.1996423 C67.0719297,91.5964392 64.3095078,92.743861 61.4951328,93.6122204 L60.4768516,93.9254235 L55.7862266,87.4194079 C55.4715391,87.4862048 55.1583359,87.5500329 54.8495859,87.6079235 L53.0074766,95.3964392 L51.9461484,95.4973767 C50.4231797,95.6369079 48.9269297,95.7096423 47.5004453,95.7096423 L47.5004453,95.7096423 Z" id="Fill-23" fill="#0E92C2" mask="url(#mask-2)"></path>
            </g>
        </g>
    </g>
</svg>