<?xml version="1.0" encoding="UTF-8" standalone="no"?>
<svg width="95px" height="95px" viewBox="0 0 95 95" version="1.1" xmlns="http://www.w3.org/2000/svg" xmlns:xlink="http://www.w3.org/1999/xlink">
    <!-- Generator: Sketch 39.1 (31720) - http://www.bohemiancoding.com/sketch -->
    <title>Producers Icon Color Home@3x</title>
    <desc>Created with Sketch.</desc>
    <defs>
        <polygon id="path-1" points="14.7240423 8.8344254 14.7240423 -0.000368101058 -0.000368101059 -0.000368101058 -0.000368101059 8.8344254 14.7240423 8.8344254"></polygon>
    </defs>
    <g id="Page-1" stroke="none" stroke-width="1" fill="none" fill-rule="evenodd">
        <g id="Home@2x" transform="translate(-556.000000, -7570.000000)">
            <g id="Producers-Icon-Color-Home" transform="translate(556.000000, 7570.000000)">
                <g id="Group-4" transform="translate(79.509829, 79.509829)">
                    <mask id="mask-2" fill="white">
                        <use xlink:href="#path-1"></use>
                    </mask>
                    <g id="Clip-3"></g>
                    <path d="M7.36202117,8.8344254 C6.98508569,8.8344254 6.6081502,8.69012979 6.32103138,8.40301096 L0.431414441,2.51339403 C-0.144295615,1.93768397 -0.144295615,1.0071245 0.431414441,0.431414441 C1.0071245,-0.144295615 1.93768397,-0.144295615 2.51339403,0.431414441 L7.36202117,5.28004158 L12.2106483,0.431414441 C12.7863584,-0.144295615 13.7169178,-0.144295615 14.2926279,0.431414441 C14.868338,1.0071245 14.868338,1.93768397 14.2926279,2.51339403 L8.40301096,8.40301096 C8.11589214,8.69012979 7.73895665,8.8344254 7.36202117,8.8344254" id="Fill-2" fill="#0EB1C2" mask="url(#mask-2)"></path>
                </g>
                <polygon id="Fill-5" fill="#0EB1C2" points="5.88961694 44.172127 8.8344254 44.172127 8.8344254 7.36202117 5.88961694 7.36202117"></polygon>
                <path d="M13.2516381,14.7240423 C12.8747026,14.7240423 12.4977671,14.5797467 12.2106483,14.2926279 L7.36202117,9.44400076 L2.51339403,14.2926279 C1.93768397,14.868338 1.0071245,14.868338 0.431414441,14.2926279 C-0.144295615,13.7169178 -0.144295615,12.7863584 0.431414441,12.2106483 L6.32103138,6.32103138 C6.89674143,5.74532132 7.82730091,5.74532132 8.40301096,6.32103138 L14.2926279,12.2106483 C14.868338,12.7863584 14.868338,13.7169178 14.2926279,14.2926279 C14.0055091,14.5797467 13.6285736,14.7240423 13.2516381,14.7240423" id="Fill-7" fill="#0EB1C2"></path>
                <polygon id="Fill-8" fill="#0EB1C2" points="50.061744 8.8344254 86.8718498 8.8344254 86.8718498 5.88961694 50.061744 5.88961694"></polygon>
                <path d="M86.8718498,8.8344254 C86.4949143,8.8344254 86.1179788,8.69012979 85.83086,8.40301096 L79.9412431,2.51339403 C79.365533,1.93768397 79.365533,1.0071245 79.9412431,0.431414441 C80.5169531,-0.144295615 81.4475126,-0.144295615 82.0232227,0.431414441 L87.9128396,6.32103138 C88.4885496,6.89674143 88.4885496,7.82730091 87.9128396,8.40301096 C87.6257208,8.69012979 87.2487853,8.8344254 86.8718498,8.8344254" id="Fill-9" fill="#0EB1C2"></path>
                <path d="M80.9822329,14.7240423 C80.6052974,14.7240423 80.2283619,14.5797467 79.9412431,14.2926279 C79.365533,13.7169178 79.365533,12.7863584 79.9412431,12.2106483 L85.83086,6.32103138 C86.4065701,5.74532132 87.3371295,5.74532132 87.9128396,6.32103138 C88.4885496,6.89674143 88.4885496,7.82730091 87.9128396,8.40301096 L82.0232227,14.2926279 C81.7361038,14.5797467 81.3591683,14.7240423 80.9822329,14.7240423" id="Fill-10" fill="#0EB1C2"></path>
                <polygon id="Fill-11" fill="#0EB1C2" points="7.36202117 88.344254 44.172127 88.344254 44.172127 85.3994456 7.36202117 85.3994456"></polygon>
                <path d="M7.36202117,88.344254 C6.98508569,88.344254 6.6081502,88.1999584 6.32103138,87.9128396 C5.74532132,87.3371295 5.74532132,86.4065701 6.32103138,85.83086 L12.2106483,79.9412431 C12.7863584,79.365533 13.7169178,79.365533 14.2926279,79.9412431 C14.868338,80.5169531 14.868338,81.4475126 14.2926279,82.0232227 L8.40301096,87.9128396 C8.11589214,88.1999584 7.73895665,88.344254 7.36202117,88.344254" id="Fill-12" fill="#0EB1C2"></path>
                <path d="M13.2516381,94.233871 C12.8747026,94.233871 12.4977671,94.0895754 12.2106483,93.8024565 L6.32103138,87.9128396 C5.74532132,87.3371295 5.74532132,86.4065701 6.32103138,85.83086 C6.89674143,85.2551499 7.82730091,85.2551499 8.40301096,85.83086 L14.2926279,91.7204769 C14.868338,92.296187 14.868338,93.2267465 14.2926279,93.8024565 C14.0055091,94.0895754 13.6285736,94.233871 13.2516381,94.233871" id="Fill-13" fill="#0EB1C2"></path>
                <path d="M47.1169355,33.8652974 C42.6584955,33.8652974 41.2273185,35.4746352 41.2273185,40.4911164 C41.2273185,44.4180185 43.2916293,48.5893397 47.1169355,48.5893397 C50.9422417,48.5893397 53.0065524,44.4180185 53.0065524,40.4911164 C53.0065524,35.4746352 51.5753755,33.8652974 47.1169355,33.8652974 M47.1169355,51.5341482 C42.0798406,51.5341482 38.2825101,46.7871169 38.2825101,40.4911164 C38.2825101,36.0356212 39.2866898,30.9204889 47.1169355,30.9204889 C54.9471812,30.9204889 55.9513609,36.0356212 55.9513609,40.4911164 C55.9513609,46.7871169 52.1540304,51.5341482 47.1169355,51.5341482" id="Fill-14" fill="#0EB1C2"></path>
                <path d="M58.8961694,63.3133821 L35.3377016,63.3133821 C32.9435723,63.3133821 30.9204889,60.6174099 30.9204889,57.4237651 L30.9204889,53.6249622 L41.9694103,47.3112928 L43.4300353,49.8673866 L33.8652974,55.3329511 L33.8652974,57.4237651 C33.8652974,59.2259879 34.9003976,60.3685736 35.3377016,60.3685736 L58.8961694,60.3685736 C59.3334734,60.3685736 60.3685736,59.2259879 60.3685736,57.4237651 L60.3685736,55.3329511 L50.8038357,49.8673866 L52.2644607,47.3112928 L63.3133821,53.6249622 L63.3133821,57.4237651 C63.3133821,60.6174099 61.2902986,63.3133821 58.8961694,63.3133821" id="Fill-15" fill="#0EB1C2"></path>
                <path d="M47.1169355,14.7240423 C29.2551997,14.7240423 14.7240423,29.2551997 14.7240423,47.1169355 C14.7240423,64.9786712 29.2551997,79.5098286 47.1169355,79.5098286 C64.9786712,79.5098286 79.5098286,64.9786712 79.5098286,47.1169355 C79.5098286,29.2551997 64.9786712,14.7240423 47.1169355,14.7240423 M47.1169355,82.4546371 C27.6326103,82.4546371 11.7792339,66.6012607 11.7792339,47.1169355 C11.7792339,27.6326103 27.6326103,11.7792339 47.1169355,11.7792339 C66.6012607,11.7792339 82.4546371,27.6326103 82.4546371,47.1169355 C82.4546371,66.6012607 66.6012607,82.4546371 47.1169355,82.4546371" id="Fill-16" fill="#0EB1C2"></path>
                <path d="M44.0656722,88.3407203 C23.9025686,86.8845125 7.53974036,70.517267 6.00843996,50.268764 L8.9458864,50.0479034 C10.3667565,68.8519778 25.557551,84.0516067 44.2791708,85.4032738 L44.0656722,88.3407203 Z" id="Fill-17" fill="#0EB1C2"></path>
                <path d="M50.3119054,88.2227807 L50.0881,85.2868066 C68.7684925,83.8526849 83.9033356,68.6825041 85.2932852,49.9991668 L88.2292593,50.2170826 C86.7332966,70.3404313 70.4337817,86.679701 50.3119054,88.2227807" id="Fill-18" fill="#0EB1C2"></path>
                <path d="M85.3002055,44.3252571 C83.9455936,25.5314894 68.7562715,10.3186089 49.9639763,8.9389661 L50.1804197,6.00151966 C70.4186159,7.48864793 86.7799718,23.8720898 88.2361796,44.1132308 L85.3002055,44.3252571 Z" id="Fill-19" fill="#0EB1C2"></path>
                <path d="M8.94662261,44.1447403 L6.01064856,43.9194624 C7.55814541,23.7828621 23.9121392,7.48187487 44.0531568,6.00210862 L44.2681278,8.93808266 C25.568594,10.3133082 10.3836891,25.4481513 8.94662261,44.1447403" id="Fill-20" fill="#0EB1C2"></path>
            </g>
        </g>
    </g>
</svg>