<?xml version="1.0" encoding="UTF-8" standalone="no"?>
<svg width="321px" height="17px" viewBox="0 0 321 17" version="1.1" xmlns="http://www.w3.org/2000/svg" xmlns:xlink="http://www.w3.org/1999/xlink">
    <!-- Generator: Sketch 39.1 (31720) - http://www.bohemiancoding.com/sketch -->
    <title>Studionow Logo Header@3x</title>
    <desc>Created with Sketch.</desc>
    <defs>
        <polygon id="path-1" points="4.00983863e-21 0.190284945 4.00983863e-21 16.7941084 30.0793659 16.7941084 30.0793659 0.190284945 0 0.190284945"></polygon>
        <polygon id="path-3" points="0.206934183 16.7942584 36.1378567 16.7942584 36.1378567 0.190224966 0.206934183 0.190224966 0.206934183 16.7942584"></polygon>
    </defs>
    <g id="Symbols" stroke="none" stroke-width="1" fill="none" fill-rule="evenodd">
        <g id="Hamburger-+-SN" transform="translate(-215.000000, -46.000000)">
            <g id="Studionow-Logo-Header" transform="translate(215.000000, 46.000000)">
                <g id="Group-3" transform="translate(0.000000, 0.109673)">
                    <mask id="mask-2" fill="white">
                        <use xlink:href="#path-1"></use>
                    </mask>
                    <g id="Clip-2"></g>
                    <path d="M22.2239147,0.455694207 C22.2641535,0.279054597 22.4443407,0.212477358 22.6047043,0.212477358 L28.0955316,0.212477358 C28.4763212,0.212477358 28.6165654,0.522271446 28.6165654,0.677318438 L28.6165654,4.72893327 C28.6165654,4.88368037 28.5165601,4.99404263 28.3561964,4.99404263 L21.7230002,4.99404263 C21.6428184,4.99404263 21.5425171,4.99404263 21.5025742,4.88368037 C20.8412961,3.62201171 18.6568593,3.33381024 18.0157006,3.33381024 L11.8632994,3.33381024 C11.3626808,3.33381024 9.87946515,3.40008758 9.87946515,4.4407318 C9.87946515,5.54765337 12.2843279,5.50356844 13.0858503,5.50356844 L16.9135705,5.54765337 C18.8974048,5.54765337 23.506232,5.96840952 24.7086634,6.25601119 C25.8711518,6.56610518 30.0793659,7.47389482 30.0793659,11.0159839 C30.0793659,16.0860505 21.8233014,16.7941084 18.9574672,16.7941084 L13.5267023,16.7941084 C11.2623796,16.7941084 8.85751681,16.0197732 7.43495525,15.2886231 L7.31453459,16.573084 C7.27459161,16.7500235 7.15417095,16.7941084 7.01392674,16.7941084 L0.200543308,16.7941084 C0.0600032204,16.7941084 -5.91747742e-05,16.7056387 -5.91747742e-05,16.5286992 L-5.91747742e-05,12.0122433 C-5.91747742e-05,11.9015811 0.0600032204,11.7465341 0.220366857,11.7465341 L7.37459698,11.7465341 C7.53496062,11.7465341 7.63496598,11.8350038 7.6755007,11.9903507 C8.07611392,13.4514512 11.322442,13.539921 11.542868,13.539921 L18.77728,13.539921 C18.997706,13.539921 20.2001374,13.4070664 20.2001374,12.676816 C20.2001374,11.8350038 19.0775919,11.5914871 18.7971035,11.5914871 L12.985549,11.5474022 C11.4428627,11.5474022 6.81362013,11.0159839 4.97003006,10.4401807 C1.68346313,9.40013628 0.100242066,7.36293276 0.100242066,5.79147001 C0.100242066,3.57762688 2.28438296,2.2712735 3.38651312,1.62919301 C4.76942757,0.76608809 7.4547788,0.190284945 10.7011069,0.190284945 L16.2120535,0.190284945 C18.997706,0.190284945 20.9413014,0.943027597 21.9635457,1.45195361 L22.2239147,0.455694207 Z" id="Fill-1" fill="#FEFEFE" mask="url(#mask-2)"></path>
                </g>
                <path d="M59.7263416,12.8301236 C59.9065288,12.8301236 60.0269495,12.8526159 60.0269495,12.9632781 L60.0269495,16.7713762 C60.0269495,16.8820384 59.9065288,16.9039309 59.7263416,16.9039309 L39.6666851,16.9039309 C39.5865033,16.9039309 39.4462591,16.8151612 39.4462591,16.5941368 L39.4462591,13.1180252 C39.4462591,13.0076629 39.5462645,12.8301236 39.6666851,12.8301236 L44.4559954,12.8301236 L44.4559954,4.30733741 L39.0855889,4.30733741 L39.0855889,7.27362329 C39.0855889,7.42837039 38.9252252,7.42837039 38.8048046,7.42837039 L32.1118418,7.42837039 C31.9313587,7.42837039 31.7911145,7.31800812 31.7911145,7.14076871 L31.7911145,0.609601589 C31.7911145,0.454854494 31.8914158,0.300107399 32.03166,0.300107399 L67.0805825,0.300107399 C67.3013044,0.300107399 67.4415486,0.344492225 67.4415486,0.83122582 L67.4415486,7.1188762 C67.4415486,7.27362329 67.3814862,7.47275521 67.2010032,7.47275521 L60.74829,7.47275521 C60.6278693,7.47275521 60.5278639,7.47275521 60.5278639,7.20704605 L60.5278639,4.30733741 L54.7763718,4.30733741 L54.7763718,12.8301236 L59.7263416,12.8301236 Z" id="Fill-4" fill="#FEFEFE"></path>
                <path d="M74.4840568,4.37325487 L69.9551155,4.37325487 C69.7746324,4.37325487 69.6343882,4.28508501 69.6343882,4.01907596 L69.6343882,0.60954161 C69.6343882,0.454794515 69.7346894,0.30004742 69.8749336,0.30004742 L88.6922158,0.30004742 C89.0327666,0.30004742 89.1931302,0.322239833 89.1931302,0.49917934 L89.1931302,4.17412295 C89.1931302,4.30727743 88.9126418,4.37325487 88.7922211,4.37325487 L84.6843084,4.37325487 L84.6843084,10.3508113 C84.6843084,10.9928917 85.0050356,12.5646544 87.2092959,12.5646544 L92.2989182,12.5646544 C92.6397649,12.5646544 94.0626223,12.0554285 94.0626223,10.5499432 L94.0626223,4.37325487 L90.235198,4.37325487 C90.1147773,4.37325487 89.9946525,4.2628926 89.9946525,4.0856532 L89.9946525,0.49917934 C89.9946525,0.410409689 90.1348967,0.30004742 90.275141,0.30004742 L103.801902,0.30004742 C104.162573,0.30004742 104.363175,0.432602102 104.363175,0.898042977 L104.363175,4.0856532 C104.363175,4.2628926 104.262874,4.37325487 104.10251,4.37325487 L99.5135066,4.37325487 L99.5135066,11.059469 C99.5135066,11.9231737 99.3129041,16.9038709 94.0626223,16.9038709 L80.9767129,16.9038709 C79.8745828,16.9038709 74.4840568,16.4615221 74.4840568,11.8122116 L74.4840568,4.37325487 Z" id="Fill-6" fill="#FEFEFE"></path>
                <g id="Group-10" transform="translate(105.626971, 0.109673)">
                    <mask id="mask-4" fill="white">
                        <use xlink:href="#path-3"></use>
                    </mask>
                    <g id="Clip-9"></g>
                    <path d="M15.2568543,12.8536956 L18.9440345,12.8536956 C21.248596,12.8536956 24.7153502,11.4588724 24.7153502,8.47009424 C24.7153502,5.34876136 20.9278688,4.08679281 19.9458634,4.08679281 L15.2568543,4.08679281 L15.2568543,12.8536956 Z M5.05660275,4.08679281 L0.627962697,4.08679281 C0.447479638,4.08679281 0.206934183,4.13117763 0.206934183,3.82108365 L0.206934183,0.632873633 C0.206934183,0.455634228 0.287116001,0.190224966 0.607843274,0.190224966 L22.1300043,0.190224966 C23.0723626,0.190224966 36.1378567,1.36372377 36.1378567,8.47009424 C36.1378567,15.5545722 25.6171737,16.7943483 21.1284713,16.7943483 L1.04869534,16.7943483 C0.647786246,16.7943483 0.206934183,16.7943483 0.206934183,16.2407376 L0.206934183,13.6064382 C0.206934183,13.2738519 0.247173029,12.8536956 0.647786246,12.8536956 L5.05660275,12.8536956 L5.05660275,4.08679281 Z" id="Fill-8" fill="#FEFEFE" mask="url(#mask-4)"></path>
                </g>
                <path d="M142.67316,0.720443694 C142.67316,0.43284202 142.813404,0.29998744 142.993592,0.29998744 L162.532214,0.29998744 C162.712401,0.29998744 162.952947,0.344372266 162.952947,0.499119361 L162.952947,4.17436287 C162.952947,4.3953873 162.812703,4.48415695 162.652635,4.48415695 L158.103574,4.48415695 L158.103574,12.7643261 L162.652635,12.7643261 C162.852942,12.7643261 162.952947,12.8527959 162.952947,13.007543 L162.952947,16.5271397 C162.952947,16.7931488 162.912708,16.9038109 162.652635,16.9038109 L143.093893,16.9038109 C142.773166,16.9038109 142.67316,16.7490638 142.67316,16.5940168 L142.67316,13.1406975 C142.67316,12.8300037 142.813404,12.7196414 142.933529,12.7196414 L147.48259,12.7196414 L147.48259,4.46196454 L143.05395,4.46196454 C142.833524,4.46196454 142.67316,4.37319489 142.67316,4.24064021 L142.67316,0.720443694 Z" id="Fill-11" fill="#FEFEFE"></path>
                <g id="Group-15" transform="translate(164.801744, 0.109673)" fill="#FEFEFE">
                    <path d="M12.0075971,8.27090234 C12.0075971,10.6397925 14.292631,12.9424052 17.2581748,12.9424052 C20.6051,12.9424052 22.4081553,10.6397925 22.4081553,8.64757356 C22.4081553,6.67664739 20.4044975,4.042348 17.0377487,4.042348 C14.4725223,4.042348 12.0075971,6.0348668 12.0075971,8.27090234 L12.0075971,8.27090234 Z M19.0218789,0.190464884 C28.2599487,0.190464884 34.111742,4.042348 34.111742,8.00519318 C34.111742,12.0565081 29.9635904,16.7942884 19.9432301,16.7942884 L16.3164083,16.7942884 C8.10028682,16.7942884 4.69329923,14.8464543 2.40885709,13.0083827 C0.645448843,11.5694746 0.124710835,9.532571 0.124710835,8.24870993 C0.124710835,6.56628512 1.2064257,5.06049991 2.22866991,3.97577076 C3.97225461,2.13829896 8.42101409,0.190464884 15.0542103,0.190464884 L19.0218789,0.190464884 Z" id="Fill-13"></path>
                </g>
                <path d="M219.180846,0.30004742 C219.381449,0.30004742 219.601875,0.410409689 219.802773,0.565456681 L230.102438,10.1957643 L230.102438,4.48421693 L225.693918,4.48421693 C225.39331,4.48421693 225.232946,4.37325487 225.232946,4.19631536 L225.232946,0.787080913 C225.232946,0.521371753 225.373191,0.30004742 225.513731,0.30004742 L239.822191,0.30004742 C240.181973,0.30004742 240.262747,0.631734023 240.262747,0.853658151 L240.262747,4.0856532 C240.262747,4.37325487 240.061849,4.48421693 239.801776,4.48421693 L235.533499,4.48421693 L235.533499,16.3061752 C235.533499,16.6828465 235.433198,16.9038709 235.172829,16.9038709 L222.828379,16.9038709 C222.688135,16.9038709 222.467413,16.8819784 222.327169,16.7491238 L211.044907,6.18883416 L211.044907,12.7197014 L215.674149,12.7197014 C215.914695,12.7197014 216.175064,12.8300637 216.175064,13.0519878 L216.175064,16.4171373 C216.175064,16.7491238 216.014996,16.9038709 215.774155,16.9038709 L201.165087,16.9038709 C200.965076,16.9038709 200.86507,16.7491238 200.86507,16.4615221 L200.86507,13.1179652 C200.86507,12.9413256 200.965076,12.7197014 201.365985,12.7197014 L205.714443,12.7197014 L205.714443,4.48421693 L201.225445,4.48421693 C201.085201,4.48421693 200.884894,4.4176397 200.884894,4.0856532 L200.884894,0.631734023 C200.884894,0.410409689 201.085201,0.30004742 201.385513,0.30004742 L219.180846,0.30004742 Z" id="Fill-16" fill="#FEFEFE"></path>
                <g id="Group-20" transform="translate(240.841328, 0.109673)" fill="#FEFEFE">
                    <path d="M12.1725764,8.27090234 C12.1725764,10.6397925 14.4570185,12.9424052 17.4225623,12.9424052 C20.7694875,12.9424052 22.5731346,10.6397925 22.5731346,8.64757356 C22.5731346,6.67664739 20.5691809,4.042348 17.2024321,4.042348 C14.6372057,4.042348 12.1725764,6.0348668 12.1725764,8.27090234 L12.1725764,8.27090234 Z M19.1862664,0.190464884 C28.4246321,0.190464884 34.2764254,4.042348 34.2764254,8.00519318 C34.2764254,12.0565081 30.1279779,16.7942884 20.1082094,16.7942884 L16.4813875,16.7942884 C8.26467434,16.7942884 4.85798262,14.8464543 2.57354049,13.0083827 C0.810428111,11.5694746 0.289098356,9.532571 0.289098356,8.24870993 C0.289098356,6.56628512 1.37081322,5.06049991 2.39305743,3.97577076 C4.13693801,2.13829896 8.58540161,0.190464884 15.2185979,0.190464884 L19.1862664,0.190464884 Z" id="Fill-18"></path>
                </g>
                <path d="M320.313937,0.30004742 C320.594721,0.30004742 320.654488,0.454794515 320.654488,0.631734023 L320.654488,4.17412295 C320.654488,4.28508501 320.554482,4.37325487 320.394119,4.37325487 L315.885297,4.37325487 L308.02955,16.6828465 C307.949664,16.8151012 307.889897,16.9038709 307.789004,16.9038709 L302.578961,16.9038709 C302.49878,16.9038709 302.458541,16.8151012 302.378359,16.704739 L297.248202,9.31046693 L292.198523,16.7713162 C292.098221,16.8819784 292.038455,16.9038709 291.837852,16.9038709 L286.787285,16.9038709 C286.647337,16.9038709 286.60769,16.7932087 286.526916,16.704739 L278.651346,4.37325487 L274.483371,4.37325487 C274.323303,4.37325487 274.142524,4.30727743 274.142524,4.04126837 L274.142524,0.60954161 C274.142524,0.454794515 274.262353,0.30004742 274.423308,0.30004742 L291.236637,0.30004742 C291.456767,0.30004742 291.637546,0.344432245 291.637546,0.60954161 L291.637546,4.13003802 C291.637546,4.2628926 291.536653,4.37325487 291.356761,4.37325487 L290.134507,4.37325487 L292.238466,7.49488765 L294.162238,4.37325487 L292.718965,4.37325487 C292.599432,4.37325487 292.439068,4.37325487 292.439068,4.24070019 L292.439068,0.653926435 C292.439068,0.432602102 292.579312,0.30004742 293.020164,0.30004742 L306.746937,0.30004742 C306.92742,0.30004742 307.107903,0.388817071 307.107903,0.631734023 L307.107903,4.13003802 C307.107903,4.2628926 307.007601,4.37325487 306.827118,4.37325487 L305.624983,4.37325487 L307.649056,7.49488765 L309.65301,4.37325487 L308.209737,4.37325487 C308.089908,4.37325487 307.909425,4.28508501 307.909425,4.15223043 L307.909425,0.60954161 C307.909425,0.388817071 308.089908,0.30004742 308.53076,0.30004742 L320.313937,0.30004742 Z" id="Fill-21" fill="#FEFEFE"></path>
            </g>
        </g>
    </g>
</svg>