<?xml version="1.0" encoding="UTF-8" standalone="no"?>
<svg width="95px" height="95px" viewBox="0 0 95 95" version="1.1" xmlns="http://www.w3.org/2000/svg" xmlns:xlink="http://www.w3.org/1999/xlink">
    <!-- Generator: Sketch 39.1 (31720) - http://www.bohemiancoding.com/sketch -->
    <title>Studios Icon Color Home@3x</title>
    <desc>Created with Sketch.</desc>
    <defs>
        <polygon id="path-1" points="4.41318107 14.7112165 8.82672991 14.7112165 8.82672991 -0.000367780413 -0.000367780414 -0.000367780413 -0.000367780414 14.7112165 4.41318107 14.7112165"></polygon>
        <polygon id="path-3" points="8.82709769 0 -0.000367780414 0 -0.000367780414 14.7112165 8.82709769 14.7112165 8.82709769 0"></polygon>
        <polygon id="path-5" points="26.9175102 21.01223 0 21.01223 0 0.194795733 26.9175102 0.194795733 26.9175102 21.01223"></polygon>
        <polygon id="path-7" points="24.3598989 0.228044496 0.0795943554 0.228044496 0.0795943554 16.330767 24.3598989 16.330767 24.3598989 0.228044496"></polygon>
    </defs>
    <g id="Page-1" stroke="none" stroke-width="1" fill="none" fill-rule="evenodd">
        <g id="Home@2x" transform="translate(-99.000000, -7569.000000)">
            <g id="Studios-Icon-Color-Home" transform="translate(99.000000, 7569.000000)">
                <g id="Page-1">
                    <polygon id="Fill-1" fill="#0D61C2" points="69.1427176 88.2672991 92.6806641 88.2672991 92.6806641 85.3250558 69.1427176 85.3250558"></polygon>
                    <g id="Group-12">
                        <g id="Group-4" transform="translate(85.325056, 79.440569)">
                            <mask id="mask-2" fill="white">
                                <use xlink:href="#path-1"></use>
                            </mask>
                            <g id="Clip-3"></g>
                            <path d="M0.431038644,14.2801779 C-0.144169922,13.7049693 -0.144169922,12.7752204 0.431038644,12.2000119 L5.27544224,7.35560826 L0.431038644,2.51120466 C-0.144169922,1.93599609 -0.144169922,1.00624721 0.431038644,0.431038644 C1.00624721,-0.144169922 1.93599609,-0.144169922 2.51120466,0.431038644 L8.39569127,6.31552525 C8.97089983,6.89073382 8.97089983,7.8204827 8.39569127,8.39569127 L2.51120466,14.2801779 C2.22433594,14.5670466 1.84772879,14.7112165 1.47112165,14.7112165 C1.09451451,14.7112165 0.717907366,14.5670466 0.431038644,14.2801779 Z" id="Fill-2" fill="#0D61C2" mask="url(#mask-2)"></path>
                        </g>
                        <g id="Group-7" transform="translate(45.604771, 0.000000)">
                            <mask id="mask-4" fill="white">
                                <use xlink:href="#path-3"></use>
                            </mask>
                            <g id="Clip-6"></g>
                            <path d="M7.35560826,14.7112165 C6.97900112,14.7112165 6.60239397,14.5670466 6.31552525,14.2801779 L0.431038644,8.39569127 C-0.144169922,7.8204827 -0.144169922,6.89073382 0.431038644,6.31552525 L6.31552525,0.431038644 C6.89073382,-0.144169922 7.8204827,-0.144169922 8.39569127,0.431038644 C8.97089983,1.00624721 8.97089983,1.93599609 8.39569127,2.51120466 L3.55128767,7.35560826 L8.39569127,12.2000119 C8.97089983,12.7752204 8.97089983,13.7049693 8.39569127,14.2801779 C8.10882254,14.5670466 7.7322154,14.7112165 7.35560826,14.7112165" id="Fill-5" fill="#0D61C2" mask="url(#mask-4)"></path>
                        </g>
                        <path d="M0,88.2672991 L0,85.3250558 L47.0758929,85.3250558 C68.1658929,85.3250558 85.3250558,68.167364 85.3250558,47.0758929 C85.3250558,25.9844217 68.1658929,8.82672991 47.0758929,8.82672991 L47.0758929,5.88448661 C69.78854,5.88448661 88.2672991,24.3632457 88.2672991,47.0758929 C88.2672991,69.78854 69.78854,88.2672991 47.0758929,88.2672991 L0,88.2672991 Z" id="Fill-8" fill="#0D61C2"></path>
                        <path d="M25.722415,82.3080795 C13.3002637,74.7626966 5.88433949,61.5917444 5.88433949,47.0761871 C5.88433949,27.2013336 20.0482988,10.1657448 39.5627275,6.5688524 L40.0952735,9.46107757 C21.9784104,12.8019948 8.8265828,28.620966 8.8265828,47.0761871 C8.8265828,60.5560748 15.7143744,72.7855091 27.2494392,79.7939326 L25.722415,82.3080795 Z" id="Fill-10" fill="#0D61C2"></path>
                    </g>
                </g>
                <g id="Page-1" transform="translate(32.704918, 28.032787)">
                    <g id="Group-3" transform="translate(0.000000, 17.694028)">
                        <mask id="mask-6" fill="white">
                            <use xlink:href="#path-5"></use>
                        </mask>
                        <g id="Clip-2"></g>
                        <path d="M9.42905086,4.42567005 L17.488831,4.42567005 C17.750842,4.42567005 17.7991561,4.56101353 17.597228,4.72725735 L13.8243936,7.84819152 C13.6218461,8.01505334 13.2947969,8.01505334 13.0941077,7.84819152 L9.31941505,4.72725735 C9.11810637,4.56101353 9.16765928,4.42567005 9.42905086,4.42567005 M25.4563189,18.0477752 C25.3516384,17.9612542 25.0927245,17.7702901 24.8914158,17.6034283 L16.4253018,10.6026477 C16.2227543,10.4364039 16.2227543,10.1657169 16.4253018,9.99947307 L22.7996637,4.72725735 C23.0015918,4.56101353 23.3769551,4.42567005 23.6389661,4.42567005 L26.4436606,4.42567005 C26.7056716,4.42567005 26.9175102,4.21431174 26.9175102,3.95289487 L26.9175102,0.666952901 C26.9175102,0.406154046 26.7056716,0.194795733 26.4436606,0.194795733 L25.6068359,0.194795733 L22.5574739,0.194795733 L0.4736019,0.194795733 C0.211590909,0.194795733 -0.000247764531,0.406154046 -0.000247764531,0.666952901 L-0.000247764531,3.95289487 C-0.000247764531,4.21431174 0.211590909,4.42567005 0.4736019,4.42567005 L3.27829639,4.42567005 C3.53968797,4.42567005 3.91567064,4.56101353 4.11697932,4.72725735 L10.4925801,9.99947307 C10.6945082,10.1657169 10.6945082,10.4364039 10.4925801,10.6026477 L2.12309426,17.5230874 C1.92178558,17.6899493 1.56438525,17.9217018 1.37794244,18.1040138 C1.06080384,18.4117812 0.864450447,18.8419139 0.864450447,19.3177791 C0.864450447,20.2534413 1.62384873,21.0123536 2.5628763,21.0123536 C2.94195604,21.0123536 3.29378167,20.8875163 3.57623323,20.676776 C3.78621367,20.5204202 4.07609817,20.2107989 4.27740686,20.043319 L13.0941077,12.7539292 C13.2947969,12.5870674 13.6218461,12.5870674 13.8243936,12.7539292 L22.7148044,20.1057377 C22.9167325,20.2725995 23.0821153,20.405471 23.0839735,20.404235 C23.0864512,20.4017629 23.2208635,20.5710968 23.437038,20.7188004 C23.7071013,20.9042024 24.0335311,21.0123536 24.3865956,21.0123536 C25.3126155,21.0123536 26.0645808,20.2627114 26.0645808,19.3375553 C26.0645808,19.0977687 26.0137891,18.8697242 25.9227357,18.6633099 C25.8168163,18.4241413 25.6749711,18.2616055 25.6768294,18.2597515 C25.6433811,18.2257611 25.56038,18.1336781 25.4563189,18.0477752 Z" id="Fill-1" fill="#0D61C2" mask="url(#mask-6)"></path>
                    </g>
                    <g id="Group-6" transform="translate(1.238823, 0.389839)">
                        <mask id="mask-8" fill="white">
                            <use xlink:href="#path-7"></use>
                        </mask>
                        <g id="Clip-5"></g>
                        <path d="M15.264463,7.83193794 L14.1080221,8.94805816 C13.9686545,9.08278363 13.8819369,9.34729053 13.9153852,9.53825462 L14.1947397,11.1197339 C14.2275685,11.31008 14.1160744,11.3916569 13.9444975,11.3001919 L12.5223291,10.5480777 C12.3513716,10.4572307 12.0726365,10.4572307 11.9010595,10.5480777 L10.4788911,11.3001919 C10.308553,11.3916569 10.1958201,11.31008 10.2298878,11.1197339 L10.5080034,9.53825462 C10.5420711,9.34729053 10.4553535,9.08278363 10.3159859,8.94805816 L9.15892558,7.83193794 C9.01955803,7.69721246 9.06229741,7.56619503 9.25431492,7.53838473 L10.8480603,7.31404827 C11.0406972,7.28747398 11.2661629,7.12370219 11.3510223,6.94942428 L12.0577706,5.50699649 C12.1432493,5.33271858 12.2813781,5.33271858 12.3662374,5.50699649 L13.0729857,6.94942428 C13.1590839,7.12370219 13.3826914,7.28747398 13.5759477,7.31404827 L15.1696931,7.53838473 C15.3617106,7.56619503 15.40445,7.69721246 15.264463,7.83193794 M21.3111564,1.74889735 L21.3111564,3.34150078 C21.3111564,3.60291764 21.0980789,3.81427596 20.8366873,3.81427596 L3.60218657,3.81427596 C3.34079499,3.81427596 3.12895632,3.60291764 3.12895632,3.34150078 L3.12895632,1.74889735 C3.12895632,0.909026151 2.44698444,0.227982696 1.60458504,0.227982696 C0.762805048,0.227982696 0.0795943554,0.909026151 0.0795943554,1.74889735 L0.0795943554,15.8579918 C0.0795943554,16.1194087 0.29205244,16.330767 0.554063431,16.330767 L2.65510665,16.330767 C2.91711764,16.330767 3.12895632,16.1194087 3.12895632,15.8579918 L3.12895632,14.3296611 C3.12895632,14.0682442 3.34079499,13.8562679 3.60218657,13.8562679 L20.8366873,13.8562679 C21.0980789,13.8562679 21.3111564,14.0682442 21.3111564,14.3296611 L21.3111564,15.8579918 C21.3111564,16.1194087 21.5236145,16.330767 21.7850061,16.330767 L23.8866687,16.330767 C24.1474409,16.330767 24.3598989,16.1194087 24.3598989,15.8579918 L24.3598989,1.74889735 C24.3598989,0.909026151 23.6773077,0.227982696 22.8355277,0.227982696 C21.9937477,0.227982696 21.3111564,0.909026151 21.3111564,1.74889735 L20.9502269,10.1394457" id="Fill-4" fill="#0D61C2" mask="url(#mask-8)"></path>
                    </g>
                </g>
            </g>
        </g>
    </g>
</svg>