<?xml version="1.0" encoding="UTF-8" standalone="no"?>
<svg width="95px" height="89px" viewBox="0 0 95 89" version="1.1" xmlns="http://www.w3.org/2000/svg" xmlns:xlink="http://www.w3.org/1999/xlink">
    <!-- Generator: Sketch 39.1 (31720) - http://www.bohemiancoding.com/sketch -->
    <title>Benefits Icon Scale and Costs@3x</title>
    <desc>Created with Sketch.</desc>
    <defs>
        <linearGradient x1="96.5545942%" y1="7.20621419%" x2="2.73784293%" y2="116.42462%" id="linearGradient-1">
            <stop stop-color="#0DB1C2" offset="0%"></stop>
            <stop stop-color="#714EBD" offset="100%"></stop>
        </linearGradient>
        <polygon id="path-2" points="0 89 95 89 95 0 0 0"></polygon>
    </defs>
    <g id="Page-1" stroke="none" stroke-width="1" fill="none" fill-rule="evenodd">
        <g id="Home@2x" transform="translate(-99.000000, -8756.000000)">
            <g id="Benefits-Icon-Scale-and-Costs" transform="translate(99.000000, 8756.000000)">
                <g id="Group-62">
                    <mask id="mask-3" fill="white">
                        <use xlink:href="#path-2"></use>
                    </mask>
                    <g id="Clip-5"></g>
                    <path d="M26.71875,63.7833333 L29.6875,63.7833333 L29.6875,23.7333333 L26.71875,23.7333333 L26.71875,63.7833333 Z M20.78125,63.7833333 L23.75,63.7833333 L23.75,37.0833333 L20.78125,37.0833333 L20.78125,63.7833333 Z M14.84375,63.7833333 L17.8125,63.7833333 L17.8125,47.4666667 L14.84375,47.4666667 L14.84375,63.7833333 Z M8.90625,63.7833333 L11.875,63.7833333 L11.875,54.8833333 L8.90625,54.8833333 L8.90625,63.7833333 Z M2.96875,63.7833333 L5.9375,63.7833333 L5.9375,57.85 L2.96875,57.85 L2.96875,63.7833333 Z M65.3125,63.7833333 L68.28125,63.7833333 L68.28125,23.7333333 L65.3125,23.7333333 L65.3125,63.7833333 Z M71.25,63.7833333 L74.21875,63.7833333 L74.21875,37.0833333 L71.25,37.0833333 L71.25,63.7833333 Z M77.1875,63.7833333 L80.15625,63.7833333 L80.15625,47.4666667 L77.1875,47.4666667 L77.1875,63.7833333 Z M83.125,63.7833333 L86.09375,63.7833333 L86.09375,54.8833333 L83.125,54.8833333 L83.125,63.7833333 Z M89.0625,63.7833333 L92.03125,63.7833333 L92.03125,57.85 L89.0625,57.85 L89.0625,63.7833333 Z" id="Combined-Shape" fill="#0E92C2" mask="url(#mask-3)"></path>
                    <polygon id="Fill-6" fill="#0EB1C2" mask="url(#mask-3)" points="46.015625 63.7833333 48.984375 63.7833333 48.984375 1.48333333 46.015625 1.48333333"></polygon>
                    <path d="M11.875,25.2166667 L28.203125,25.2166667 L28.203125,22.25 L11.875,22.25 L11.875,25.2166667 Z M5.9375,25.2166667 L8.90625,25.2166667 L8.90625,22.25 L5.9375,22.25 L5.9375,25.2166667 Z M0,25.2166667 L2.96875,25.2166667 L2.96875,22.25 L0,22.25 L0,25.2166667 Z" id="Combined-Shape" fill="#0EB1C2" mask="url(#mask-3)"></path>
                    <path d="M47.5,2.96666667 L83.125,2.96666667 L83.125,0 L47.5,0 L47.5,2.96666667 Z M86.09375,2.96666667 L89.0625,2.96666667 L89.0625,0 L86.09375,0 L86.09375,2.96666667 Z M92.03125,2.96666667 L95,2.96666667 L95,0 L92.03125,0 L92.03125,2.96666667 Z" id="Combined-Shape" fill="#0EB1C2" mask="url(#mask-3)"></path>
                    <path d="M1.484375,71.2 L4.453125,71.2 L4.453125,68.2333333 L1.484375,68.2333333 L1.484375,71.2 Z M7.421875,71.2 L10.390625,71.2 L10.390625,68.2333333 L7.421875,68.2333333 L7.421875,71.2 Z M13.359375,71.2 L16.328125,71.2 L16.328125,68.2333333 L13.359375,68.2333333 L13.359375,71.2 Z M19.296875,71.2 L22.265625,71.2 L22.265625,68.2333333 L19.296875,68.2333333 L19.296875,71.2 Z M25.234375,71.2 L28.203125,71.2 L28.203125,68.2333333 L25.234375,68.2333333 L25.234375,71.2 Z M31.171875,71.2 L34.140625,71.2 L34.140625,68.2333333 L31.171875,68.2333333 L31.171875,71.2 Z M37.109375,71.2 L40.078125,71.2 L40.078125,68.2333333 L37.109375,68.2333333 L37.109375,71.2 Z M43.046875,71.2 L46.015625,71.2 L46.015625,68.2333333 L43.046875,68.2333333 L43.046875,71.2 Z M48.984375,71.2 L51.953125,71.2 L51.953125,68.2333333 L48.984375,68.2333333 L48.984375,71.2 Z M54.921875,71.2 L57.890625,71.2 L57.890625,68.2333333 L54.921875,68.2333333 L54.921875,71.2 Z M60.859375,71.2 L63.828125,71.2 L63.828125,68.2333333 L60.859375,68.2333333 L60.859375,71.2 Z M66.796875,71.2 L69.765625,71.2 L69.765625,68.2333333 L66.796875,68.2333333 L66.796875,71.2 Z M13.359375,77.1333333 L16.328125,77.1333333 L16.328125,74.1666667 L13.359375,74.1666667 L13.359375,77.1333333 Z M19.296875,77.1333333 L22.265625,77.1333333 L22.265625,74.1666667 L19.296875,74.1666667 L19.296875,77.1333333 Z M25.234375,77.1333333 L28.203125,77.1333333 L28.203125,74.1666667 L25.234375,74.1666667 L25.234375,77.1333333 Z M31.171875,77.1333333 L34.140625,77.1333333 L34.140625,74.1666667 L31.171875,74.1666667 L31.171875,77.1333333 Z M37.109375,77.1333333 L40.078125,77.1333333 L40.078125,74.1666667 L37.109375,74.1666667 L37.109375,77.1333333 Z M43.046875,77.1333333 L46.015625,77.1333333 L46.015625,74.1666667 L43.046875,74.1666667 L43.046875,77.1333333 Z M48.984375,77.1333333 L51.953125,77.1333333 L51.953125,74.1666667 L48.984375,74.1666667 L48.984375,77.1333333 Z M54.921875,77.1333333 L57.890625,77.1333333 L57.890625,74.1666667 L54.921875,74.1666667 L54.921875,77.1333333 Z M60.859375,77.1333333 L63.828125,77.1333333 L63.828125,74.1666667 L60.859375,74.1666667 L60.859375,77.1333333 Z M66.796875,77.1333333 L69.765625,77.1333333 L69.765625,74.1666667 L66.796875,74.1666667 L66.796875,77.1333333 Z M25.234375,83.0666667 L28.203125,83.0666667 L28.203125,80.1 L25.234375,80.1 L25.234375,83.0666667 Z M31.171875,83.0666667 L34.140625,83.0666667 L34.140625,80.1 L31.171875,80.1 L31.171875,83.0666667 Z M37.109375,83.0666667 L40.078125,83.0666667 L40.078125,80.1 L37.109375,80.1 L37.109375,83.0666667 Z M43.046875,83.0666667 L46.015625,83.0666667 L46.015625,80.1 L43.046875,80.1 L43.046875,83.0666667 Z M48.984375,83.0666667 L51.953125,83.0666667 L51.953125,80.1 L48.984375,80.1 L48.984375,83.0666667 Z M54.921875,83.0666667 L57.890625,83.0666667 L57.890625,80.1 L54.921875,80.1 L54.921875,83.0666667 Z M60.859375,83.0666667 L63.828125,83.0666667 L63.828125,80.1 L60.859375,80.1 L60.859375,83.0666667 Z M66.796875,83.0666667 L69.765625,83.0666667 L69.765625,80.1 L66.796875,80.1 L66.796875,83.0666667 Z M37.109375,89 L40.078125,89 L40.078125,86.0333333 L37.109375,86.0333333 L37.109375,89 Z M43.046875,89 L46.015625,89 L46.015625,86.0333333 L43.046875,86.0333333 L43.046875,89 Z M48.984375,89 L51.953125,89 L51.953125,86.0333333 L48.984375,86.0333333 L48.984375,89 Z M54.921875,89 L57.890625,89 L57.890625,86.0333333 L54.921875,86.0333333 L54.921875,89 Z M72.734375,71.2 L75.703125,71.2 L75.703125,68.2333333 L72.734375,68.2333333 L72.734375,71.2 Z M78.671875,71.2 L81.640625,71.2 L81.640625,68.2333333 L78.671875,68.2333333 L78.671875,71.2 Z M84.609375,71.2 L87.578125,71.2 L87.578125,68.2333333 L84.609375,68.2333333 L84.609375,71.2 Z M90.546875,71.2 L93.515625,71.2 L93.515625,68.2333333 L90.546875,68.2333333 L90.546875,71.2 Z M72.734375,77.1333333 L75.703125,77.1333333 L75.703125,74.1666667 L72.734375,74.1666667 L72.734375,77.1333333 Z M78.671875,77.1333333 L81.640625,77.1333333 L81.640625,74.1666667 L78.671875,74.1666667 L78.671875,77.1333333 Z" id="Combined-Shape" fill="#0EB1C2" mask="url(#mask-3)"></path>
                    <polygon id="Fill-1" fill="#0EB1C2" mask="url(#mask-3)" points="0 65.2666667 95 65.2666667 95 62.3 0 62.3"></polygon>
                    <path d="M95,59.3333333 C80.7960156,59.3333333 73.9500781,43.5091333 67.3297656,28.2070667 C61.714375,15.2264167 56.4107031,2.96666667 47.5,2.96666667 C38.5892969,2.96666667 33.285625,15.2264167 27.6702344,28.2070667 C21.0499219,43.5091333 14.2039844,59.3333333 0,59.3333333 L0,56.3666667 C12.2535156,56.3666667 18.7060937,41.45175 24.9449219,27.0293 C30.958125,13.1289833 36.6388281,0 47.5,0 C58.3611719,0 64.041875,13.1289833 70.0550781,27.0293 C76.2939062,41.45175 82.7464844,56.3666667 95,56.3666667 L95,59.3333333 L95,59.3333333 Z" id="Fill-2" fill="#0E92C2" mask="url(#mask-3)"></path>
                </g>
            </g>
        </g>
    </g>
</svg>