<?xml version="1.0" encoding="UTF-8" standalone="no"?>
<svg width="74px" height="75px" viewBox="0 0 74 75" version="1.1" xmlns="http://www.w3.org/2000/svg" xmlns:xlink="http://www.w3.org/1999/xlink">
    <!-- Generator: Sketch 39.1 (31720) - http://www.bohemiancoding.com/sketch -->
    <title>Cloud Icon Solutions@3x</title>
    <desc>Created with Sketch.</desc>
    <defs>
        <polygon id="path-1" points="0 74.2124033 73.3063013 74.2124033 73.3063013 0 0 0"></polygon>
    </defs>
    <g id="Page-1" stroke="none" stroke-width="1" fill="none" fill-rule="evenodd">
        <g id="Home@2x" transform="translate(-195.000000, -941.000000)">
            <g id="Group-9" transform="translate(18.000000, 939.000000)">
                <g id="Cloud-Icon-Solutions" transform="translate(177.500000, 2.000000)">
                    <path d="M58.4159589,48.7018897 L53.834315,48.7018897 L53.834315,46.3827521 L58.4159589,46.3827521 C65.3628763,46.3827521 71.0154794,40.66028 71.0154794,33.6274952 C71.0154794,27.0167935 66.5838844,22.0318072 60.7067808,22.0318072 L59.5613698,22.0318072 L59.5613698,20.8722384 C59.5613698,16.3881859 57.153716,11.595688 50.3980822,11.595688 L48.5780241,11.595688 L48.2504366,10.9973505 C45.2769498,5.56361111 39.6575636,2.3191376 33.2169178,2.3191376 C23.7432238,2.3191376 16.0357534,10.1218761 16.0357534,19.7126696 L16.0357534,20.8722384 L14.8903425,20.8722384 C7.94342499,20.8722384 2.29082192,26.5947105 2.29082192,33.6274952 C2.29082192,40.66028 7.94342499,46.3827521 14.8903425,46.3827521 L19.4719863,46.3827521 L19.4719863,48.7018897 L14.8903425,48.7018897 C6.6788913,48.7018897 0,41.9392844 0,33.6274952 C0,25.6948851 6.0832776,19.1734701 13.7758576,18.5948453 C14.3497085,8.24221504 22.8498032,0 33.2169178,0 C40.2646314,0 46.4544322,3.45435546 49.9135733,9.27655041 L50.3980822,9.27655041 C56.9830498,9.27655041 61.3631013,13.3535943 61.8132478,19.7602119 C68.4383047,20.3411559 73.3063013,26.1076916 73.3063013,33.6274952 C73.3063013,41.9392844 66.6262646,48.7018897 58.4159589,48.7018897 L58.4159589,48.7018897 Z" id="Fill-1" fill="#FFFFFF"></path>
                    <mask id="mask-2" fill="white">
                        <use xlink:href="#path-1"></use>
                    </mask>
                    <g id="Clip-4"></g>
                    <path d="M28.635274,48.7018897 L44.6710274,48.7018897 L44.6710274,32.4679264 L28.635274,32.4679264 L28.635274,48.7018897 Z M26.344452,51.0210273 L46.9618493,51.0210273 L46.9618493,30.1487888 L26.344452,30.1487888 L26.344452,51.0210273 Z" id="Fill-3" fill="#FFFFFF" mask="url(#mask-2)"></path>
                    <polygon id="Fill-5" fill="#FFFFFF" mask="url(#mask-2)" points="28.635274 31.3083576 30.9260959 31.3083576 30.9260959 25.5105136 28.635274 25.5105136"></polygon>
                    <polygon id="Fill-6" fill="#FFFFFF" mask="url(#mask-2)" points="33.2169178 31.3083576 35.5077397 31.3083576 35.5077397 25.5105136 33.2169178 25.5105136"></polygon>
                    <polygon id="Fill-7" fill="#FFFFFF" mask="url(#mask-2)" points="37.7985616 31.3083576 40.0893835 31.3083576 40.0893835 25.5105136 37.7985616 25.5105136"></polygon>
                    <polygon id="Fill-8" fill="#FFFFFF" mask="url(#mask-2)" points="42.3802055 31.3083576 44.6710274 31.3083576 44.6710274 25.5105136 42.3802055 25.5105136"></polygon>
                    <polygon id="Fill-9" fill="#FFFFFF" mask="url(#mask-2)" points="33.2169178 74.2124033 35.5077397 74.2124033 35.5077397 49.8614585 33.2169178 49.8614585"></polygon>
                    <polygon id="Fill-10" fill="#FFFFFF" mask="url(#mask-2)" points="37.7985616 74.2124033 40.0893835 74.2124033 40.0893835 49.8614585 37.7985616 49.8614585"></polygon>
                    <polygon id="Fill-11" fill="#FFFFFF" mask="url(#mask-2)" points="45.8164383 34.787064 51.5434931 34.787064 51.5434931 32.4679264 45.8164383 32.4679264"></polygon>
                    <polygon id="Fill-12" fill="#FFFFFF" mask="url(#mask-2)" points="45.8164383 39.4253393 51.5434931 39.4253393 51.5434931 37.1062017 45.8164383 37.1062017"></polygon>
                    <polygon id="Fill-13" fill="#FFFFFF" mask="url(#mask-2)" points="45.8164383 44.0636145 51.5434931 44.0636145 51.5434931 41.7444769 45.8164383 41.7444769"></polygon>
                    <polygon id="Fill-14" fill="#FFFFFF" mask="url(#mask-2)" points="45.8164383 48.7018897 51.5434931 48.7018897 51.5434931 46.3827521 45.8164383 46.3827521"></polygon>
                    <polygon id="Fill-15" fill="#FFFFFF" mask="url(#mask-2)" points="21.7628082 34.787064 27.489863 34.787064 27.489863 32.4679264 21.7628082 32.4679264"></polygon>
                    <polygon id="Fill-16" fill="#FFFFFF" mask="url(#mask-2)" points="21.7628082 39.4253393 27.489863 39.4253393 27.489863 37.1062017 21.7628082 37.1062017"></polygon>
                    <polygon id="Fill-17" fill="#FFFFFF" mask="url(#mask-2)" points="21.7628082 44.0636145 27.489863 44.0636145 27.489863 41.7444769 21.7628082 41.7444769"></polygon>
                    <polygon id="Fill-18" fill="#FFFFFF" mask="url(#mask-2)" points="21.7628082 48.7018897 27.489863 48.7018897 27.489863 46.3827521 21.7628082 46.3827521"></polygon>
                    <path d="M35.5077397,41.7444769 L37.7985616,41.7444769 L37.7985616,39.4253393 L35.5077397,39.4253393 L35.5077397,41.7444769 Z M33.2169178,44.0636145 L40.0893835,44.0636145 L40.0893835,37.1062017 L33.2169178,37.1062017 L33.2169178,44.0636145 Z" id="Fill-19" fill="#FFFFFF" mask="url(#mask-2)"></path>
                    <polygon id="Fill-20" fill="#FFFFFF" mask="url(#mask-2)" points="30.9260959 62.6167153 0 62.6167153 0 60.2975777 28.635274 60.2975777 28.635274 49.8614585 30.9260959 49.8614585"></polygon>
                    <polygon id="Fill-21" fill="#FFFFFF" mask="url(#mask-2)" points="73.3063013 62.6167153 42.3802055 62.6167153 42.3802055 49.8614585 44.6710274 49.8614585 44.6710274 60.2975777 73.3063013 60.2975777"></polygon>
                    <polygon id="Fill-22" fill="#FFFFFF" mask="url(#mask-2)" points="28.635274 23.191376 30.9260959 23.191376 30.9260959 20.8722384 28.635274 20.8722384"></polygon>
                    <polygon id="Fill-23" fill="#FFFFFF" mask="url(#mask-2)" points="33.2169178 23.191376 35.5077397 23.191376 35.5077397 20.8722384 33.2169178 20.8722384"></polygon>
                    <polygon id="Fill-24" fill="#FFFFFF" mask="url(#mask-2)" points="33.2169178 18.5531008 35.5077397 18.5531008 35.5077397 16.2339632 33.2169178 16.2339632"></polygon>
                    <polygon id="Fill-25" fill="#FFFFFF" mask="url(#mask-2)" points="37.7985616 18.5531008 40.0893835 18.5531008 40.0893835 16.2339632 37.7985616 16.2339632"></polygon>
                    <polygon id="Fill-26" fill="#FFFFFF" mask="url(#mask-2)" points="37.7985616 23.191376 40.0893835 23.191376 40.0893835 20.8722384 37.7985616 20.8722384"></polygon>
                    <polygon id="Fill-27" fill="#FFFFFF" mask="url(#mask-2)" points="42.3802055 23.191376 44.6710274 23.191376 44.6710274 20.8722384 42.3802055 20.8722384"></polygon>
                    <polygon id="Fill-28" fill="#FFFFFF" mask="url(#mask-2)" points="17.1811644 34.787064 19.4719863 34.787064 19.4719863 32.4679264 17.1811644 32.4679264"></polygon>
                    <polygon id="Fill-29" fill="#FFFFFF" mask="url(#mask-2)" points="12.5995205 34.787064 14.8903425 34.787064 14.8903425 32.4679264 12.5995205 32.4679264"></polygon>
                    <polygon id="Fill-30" fill="#FFFFFF" mask="url(#mask-2)" points="17.1811644 39.4253393 19.4719863 39.4253393 19.4719863 37.1062017 17.1811644 37.1062017"></polygon>
                    <polygon id="Fill-31" fill="#FFFFFF" mask="url(#mask-2)" points="12.5995205 39.4253393 14.8903425 39.4253393 14.8903425 37.1062017 12.5995205 37.1062017"></polygon>
                    <polygon id="Fill-32" fill="#FFFFFF" mask="url(#mask-2)" points="17.1811644 44.0636145 19.4719863 44.0636145 19.4719863 41.7444769 17.1811644 41.7444769"></polygon>
                    <polygon id="Fill-33" fill="#FFFFFF" mask="url(#mask-2)" points="8.01787671 34.787064 10.3086986 34.787064 10.3086986 32.4679264 8.01787671 32.4679264"></polygon>
                    <polygon id="Fill-34" fill="#FFFFFF" mask="url(#mask-2)" points="53.834315 34.787064 56.1251369 34.787064 56.1251369 32.4679264 53.834315 32.4679264"></polygon>
                    <polygon id="Fill-35" fill="#FFFFFF" mask="url(#mask-2)" points="58.4159589 34.787064 60.7067808 34.787064 60.7067808 32.4679264 58.4159589 32.4679264"></polygon>
                    <polygon id="Fill-36" fill="#FFFFFF" mask="url(#mask-2)" points="53.834315 39.4253393 56.1251369 39.4253393 56.1251369 37.1062017 53.834315 37.1062017"></polygon>
                    <polygon id="Fill-37" fill="#FFFFFF" mask="url(#mask-2)" points="58.4159589 39.4253393 60.7067808 39.4253393 60.7067808 37.1062017 58.4159589 37.1062017"></polygon>
                    <polygon id="Fill-38" fill="#FFFFFF" mask="url(#mask-2)" points="53.834315 44.0636145 56.1251369 44.0636145 56.1251369 41.7444769 53.834315 41.7444769"></polygon>
                    <polygon id="Fill-39" fill="#FFFFFF" mask="url(#mask-2)" points="62.9976027 34.787064 65.2884246 34.787064 65.2884246 32.4679264 62.9976027 32.4679264"></polygon>
                </g>
            </g>
        </g>
    </g>
</svg>