<?xml version="1.0" encoding="UTF-8" standalone="no"?>
<svg width="95px" height="95px" viewBox="0 0 95 95" version="1.1" xmlns="http://www.w3.org/2000/svg" xmlns:xlink="http://www.w3.org/1999/xlink">
    <!-- Generator: Sketch 39.1 (31720) - http://www.bohemiancoding.com/sketch -->
    <title>Network Icon Color Home@3x</title>
    <desc>Created with Sketch.</desc>
    <defs>
        <polygon id="path-1" points="0 95 95 95 95 0 0 0"></polygon>
    </defs>
    <g id="Page-1" stroke="none" stroke-width="1" fill="none" fill-rule="evenodd">
        <g id="Home@2x" transform="translate(-214.000000, -7279.000000)">
            <g id="Network-Icon-Color-Home" transform="translate(214.000000, 7279.000000)">
                <path d="M47.5,2.96875 C44.2254688,2.96875 41.5625,5.63171875 41.5625,8.90625 C41.5625,12.1807813 44.2254688,14.84375 47.5,14.84375 C50.7745313,14.84375 53.4375,12.1807813 53.4375,8.90625 C53.4375,5.63171875 50.7745313,2.96875 47.5,2.96875 L47.5,2.96875 Z M47.5,17.8125 C42.5882031,17.8125 38.59375,13.8180469 38.59375,8.90625 C38.59375,3.99445313 42.5882031,0 47.5,0 C52.4117969,0 56.40625,3.99445313 56.40625,8.90625 C56.40625,13.8180469 52.4117969,17.8125 47.5,17.8125 L47.5,17.8125 Z" id="Fill-1" fill="#714DBD"></path>
                <path d="M75.703125,13.359375 C72.4285937,13.359375 69.765625,16.0223437 69.765625,19.296875 C69.765625,22.5714063 72.4285937,25.234375 75.703125,25.234375 C78.9776563,25.234375 81.640625,22.5714063 81.640625,19.296875 C81.640625,16.0223437 78.9776563,13.359375 75.703125,13.359375 M75.703125,28.203125 C70.7913281,28.203125 66.796875,24.2086719 66.796875,19.296875 C66.796875,14.3850781 70.7913281,10.390625 75.703125,10.390625 C80.6149219,10.390625 84.609375,14.3850781 84.609375,19.296875 C84.609375,24.2086719 80.6149219,28.203125 75.703125,28.203125" id="Fill-3" fill="#714DBD"></path>
                <path d="M86.09375,41.5625 C82.8192187,41.5625 80.15625,44.2254687 80.15625,47.5 C80.15625,50.7745312 82.8192187,53.4375 86.09375,53.4375 C89.3682813,53.4375 92.03125,50.7745312 92.03125,47.5 C92.03125,44.2254687 89.3682813,41.5625 86.09375,41.5625 M86.09375,56.40625 C81.1819531,56.40625 77.1875,52.4117969 77.1875,47.5 C77.1875,42.5882031 81.1819531,38.59375 86.09375,38.59375 C91.0055469,38.59375 95,42.5882031 95,47.5 C95,52.4117969 91.0055469,56.40625 86.09375,56.40625" id="Fill-5" fill="#714DBD"></path>
                <path d="M75.703125,69.765625 C72.4285937,69.765625 69.765625,72.4285938 69.765625,75.703125 C69.765625,78.9776562 72.4285937,81.640625 75.703125,81.640625 C78.9776563,81.640625 81.640625,78.9776562 81.640625,75.703125 C81.640625,72.4285938 78.9776563,69.765625 75.703125,69.765625 M75.703125,84.609375 C70.7913281,84.609375 66.796875,80.6149219 66.796875,75.703125 C66.796875,70.7913281 70.7913281,66.796875 75.703125,66.796875 C80.6149219,66.796875 84.609375,70.7913281 84.609375,75.703125 C84.609375,80.6149219 80.6149219,84.609375 75.703125,84.609375" id="Fill-7" fill="#714DBD"></path>
                <path d="M19.296875,13.359375 C16.0223438,13.359375 13.359375,16.0223437 13.359375,19.296875 C13.359375,22.5714063 16.0223438,25.234375 19.296875,25.234375 C22.5714062,25.234375 25.234375,22.5714063 25.234375,19.296875 C25.234375,16.0223437 22.5714062,13.359375 19.296875,13.359375 M19.296875,28.203125 C14.3850781,28.203125 10.390625,24.2086719 10.390625,19.296875 C10.390625,14.3850781 14.3850781,10.390625 19.296875,10.390625 C24.2086719,10.390625 28.203125,14.3850781 28.203125,19.296875 C28.203125,24.2086719 24.2086719,28.203125 19.296875,28.203125" id="Fill-9" fill="#714DBD"></path>
                <path d="M8.90625,41.5625 C5.63171875,41.5625 2.96875,44.2254687 2.96875,47.5 C2.96875,50.7745312 5.63171875,53.4375 8.90625,53.4375 C12.1807812,53.4375 14.84375,50.7745312 14.84375,47.5 C14.84375,44.2254687 12.1807812,41.5625 8.90625,41.5625 M8.90625,56.40625 C3.99445312,56.40625 0,52.4117969 0,47.5 C0,42.5882031 3.99445312,38.59375 8.90625,38.59375 C13.8180469,38.59375 17.8125,42.5882031 17.8125,47.5 C17.8125,52.4117969 13.8180469,56.40625 8.90625,56.40625" id="Fill-11" fill="#714DBD"></path>
                <path d="M19.296875,69.765625 C16.0223438,69.765625 13.359375,72.4285938 13.359375,75.703125 C13.359375,78.9776562 16.0223438,81.640625 19.296875,81.640625 C22.5714062,81.640625 25.234375,78.9776562 25.234375,75.703125 C25.234375,72.4285938 22.5714062,69.765625 19.296875,69.765625 M19.296875,84.609375 C14.3850781,84.609375 10.390625,80.6149219 10.390625,75.703125 C10.390625,70.7913281 14.3850781,66.796875 19.296875,66.796875 C24.2086719,66.796875 28.203125,70.7913281 28.203125,75.703125 C28.203125,80.6149219 24.2086719,84.609375 19.296875,84.609375" id="Fill-13" fill="#714DBD"></path>
                <path d="M47.5,80.15625 C44.2254688,80.15625 41.5625,82.8192188 41.5625,86.09375 C41.5625,89.3682812 44.2254688,92.03125 47.5,92.03125 C50.7745313,92.03125 53.4375,89.3682812 53.4375,86.09375 C53.4375,82.8192188 50.7745313,80.15625 47.5,80.15625 M47.5,95 C42.5882031,95 38.59375,91.0055469 38.59375,86.09375 C38.59375,81.1819531 42.5882031,77.1875 47.5,77.1875 C52.4117969,77.1875 56.40625,81.1819531 56.40625,86.09375 C56.40625,91.0055469 52.4117969,95 47.5,95" id="Fill-15" fill="#714DBD"></path>
                <path d="M41.4538438,27.0405625 L47.4997031,29.5936875 L53.5455625,27.0405625 L47.4997031,12.7237656 L41.4538438,27.0405625 Z M40.3004844,29.7762656 L38.8309531,33.2541562 L43.683375,31.2057187 L40.3004844,29.7762656 Z M51.3175156,31.2057187 L56.1684531,33.2541562 L54.7004063,29.7762656 L51.3175156,31.2057187 Z M22.0857187,22.0857187 L28.6199375,37.5647812 L34.9092344,34.9092344 L37.5647812,28.6199375 L22.0857187,22.0857187 Z M60.0916563,34.9092344 L66.3794688,37.5647812 L72.9136875,22.0857187 L57.4361094,28.6199375 L60.0916563,34.9092344 Z M29.7762656,40.3004844 L31.2057188,43.683375 L33.2526719,38.8309531 L29.7762656,40.3004844 Z M61.7467344,38.8309531 L63.7951719,43.683375 L65.224625,40.3004844 L61.7467344,38.8309531 Z M12.7237656,47.4997031 L27.0405625,53.5455625 L29.5936875,47.4997031 L27.0405625,41.4538437 L12.7237656,47.4997031 Z M65.4072031,47.4997031 L67.9588437,53.5455625 L82.277125,47.4997031 L67.9588437,41.4538437 L65.4072031,47.4997031 Z M29.7762656,54.7004062 L33.2526719,56.1684531 L31.2057188,51.3175156 L29.7762656,54.7004062 Z M63.7951719,51.3175156 L61.7467344,56.1684531 L65.224625,54.7004062 L63.7951719,51.3175156 Z M37.175875,57.8235312 L47.4997031,62.184625 L57.8235312,57.8235312 L62.184625,47.4997031 L57.8235312,37.175875 L47.4997031,32.8162656 L37.175875,37.175875 L32.8162656,47.4997031 L37.175875,57.8235312 Z M38.8309531,61.7467344 L40.3004844,65.224625 L43.683375,63.7951719 L38.8309531,61.7467344 Z M51.3175156,63.7951719 L54.7004063,65.224625 L56.1684531,61.7467344 L51.3175156,63.7951719 Z M28.6199375,57.4361094 L22.0857187,72.9136875 L37.5647812,66.3794687 L34.9092344,60.0916562 L28.6199375,57.4361094 Z M57.4361094,66.3794687 L72.9136875,72.9136875 L66.3794688,57.4361094 L60.0916563,60.0916562 L57.4361094,66.3794687 Z M41.4538438,67.9588437 L47.4997031,82.277125 L53.5455625,67.9588437 L47.4997031,65.4072031 L41.4538438,67.9588437 Z M47.4997031,87.5778281 C46.9029844,87.5778281 46.3656406,87.2215781 46.1325937,86.670875 L38.719625,69.1136875 L19.874,77.0699375 C19.3188437,77.3074375 18.6731406,77.1782969 18.247125,76.7522812 C17.819625,76.3247812 17.6949375,75.6835312 17.9294687,75.1268906 L25.8872031,56.2797812 L8.32853125,48.8668125 C7.77782812,48.63525 7.42157812,48.0979062 7.42157812,47.4997031 C7.42157812,46.9029844 7.77782812,46.3656406 8.32853125,46.1325937 L25.8872031,38.719625 L17.9294687,19.874 C17.6949375,19.3173594 17.819625,18.674625 18.247125,18.247125 C18.674625,17.819625 19.3203281,17.6919687 19.874,17.9294687 L38.719625,25.8872031 L46.1325937,8.33001562 C46.3656406,7.77782812 46.9029844,7.42157812 47.4997031,7.42157812 C48.0964219,7.42157812 48.63525,7.77782812 48.8668125,8.33001562 L56.2797812,25.8872031 L75.1254062,17.9294687 C75.6805625,17.6904844 76.3247812,17.819625 76.7522812,18.247125 C77.1797812,18.674625 77.3044687,19.3173594 77.0699375,19.874 L69.1136875,38.719625 L86.670875,46.1325937 C87.2215781,46.3656406 87.5778281,46.9029844 87.5778281,47.4997031 C87.5778281,48.0979062 87.2215781,48.63525 86.670875,48.8668125 L69.1136875,56.2797812 L76.9645469,74.8745469 C77.123375,75.1120469 77.2168906,75.3955625 77.2168906,75.7028281 C77.2168906,76.5236875 76.5518906,77.1872031 75.7325156,77.1872031 L75.7028281,77.1872031 C75.508375,77.1872031 75.3109531,77.1500937 75.1254062,77.0699375 L56.2797812,69.1136875 L48.8668125,86.670875 C48.63525,87.2215781 48.0964219,87.5778281 47.4997031,87.5778281 L47.4997031,87.5778281 Z" id="Fill-17" fill="#714DBD"></path>
                <mask id="mask-2" fill="white">
                    <use xlink:href="#path-1"></use>
                </mask>
                <g id="Clip-20"></g>
                <polygon id="Fill-19" fill="#714DBD" mask="url(#mask-2)" points="43.046875 43.046875 46.015625 43.046875 46.015625 40.078125 43.046875 40.078125"></polygon>
                <polygon id="Fill-21" fill="#714DBD" mask="url(#mask-2)" points="48.984375 43.046875 51.953125 43.046875 51.953125 40.078125 48.984375 40.078125"></polygon>
                <polygon id="Fill-22" fill="#714DBD" mask="url(#mask-2)" points="51.953125 48.984375 54.921875 48.984375 54.921875 46.015625 51.953125 46.015625"></polygon>
                <polygon id="Fill-23" fill="#714DBD" mask="url(#mask-2)" points="46.015625 48.984375 48.984375 48.984375 48.984375 46.015625 46.015625 46.015625"></polygon>
                <polygon id="Fill-24" fill="#714DBD" mask="url(#mask-2)" points="40.078125 48.984375 43.046875 48.984375 43.046875 46.015625 40.078125 46.015625"></polygon>
                <polygon id="Fill-25" fill="#714DBD" mask="url(#mask-2)" points="48.984375 54.921875 51.953125 54.921875 51.953125 51.953125 48.984375 51.953125"></polygon>
                <polygon id="Fill-26" fill="#714DBD" mask="url(#mask-2)" points="43.046875 54.921875 46.015625 54.921875 46.015625 51.953125 43.046875 51.953125"></polygon>
            </g>
        </g>
    </g>
</svg>