<?xml version="1.0" encoding="UTF-8" standalone="no"?>
<svg width="74px" height="75px" viewBox="0 0 74 75" version="1.1" xmlns="http://www.w3.org/2000/svg" xmlns:xlink="http://www.w3.org/1999/xlink">
    <!-- Generator: Sketch 39.1 (31720) - http://www.bohemiancoding.com/sketch -->
    <title>Pro Icon Solutions@3x</title>
    <desc>Created with Sketch.</desc>
    <defs>
        <polygon id="path-1" points="0 74.8342956 73.3063013 74.8342956 73.3063013 0.536703909 0 0.536703909"></polygon>
    </defs>
    <g id="Page-1" stroke="none" stroke-width="1" fill="none" fill-rule="evenodd">
        <g id="Home@2x" transform="translate(-483.000000, -941.000000)">
            <g id="Group-9" transform="translate(18.000000, 939.000000)">
                <g id="Pro-Icon-Solutions" transform="translate(465.500000, 2.000000)">
                    <path d="M25.1990411,43.9611903 L36.6531507,50.2939981 L48.1072602,43.9611903 L48.1072602,31.4081839 L36.6531507,25.0753761 L25.1990411,31.4081839 L25.1990411,43.9611903 L25.1990411,43.9611903 Z M36.6531507,52.7772017 C36.4641579,52.7772017 36.275165,52.729604 36.1044988,52.6355697 L23.5049783,45.6700616 C23.1373014,45.466901 22.9082192,45.0756716 22.9082192,44.6507756 L22.9082192,30.7197595 C22.9082192,30.2948635 23.1373014,29.9036341 23.5049783,29.7004735 L36.1044988,22.7349654 C36.4446859,22.5468967 36.8616155,22.5468967 37.2006571,22.7349654 L49.8001776,29.7004735 C50.169,29.9036341 50.3980822,30.2948635 50.3980822,30.7197595 L50.3980822,44.6507756 C50.3980822,45.0756716 50.169,45.466901 49.8001776,45.6700616 L37.2006571,52.6355697 C37.0311363,52.729604 36.8421435,52.7772017 36.6531507,52.7772017 L36.6531507,52.7772017 Z" id="Fill-1" fill="#FFFFFF"></path>
                    <path d="M36.6531507,38.8458373 C36.4641579,38.8458373 36.275165,38.7982397 36.1044988,38.7042053 L23.5049783,31.7386972 L24.6011366,29.7001252 L36.6531507,36.3626337 L48.7040194,29.7001252 L49.8001776,31.7386972 L37.2006571,38.7042053 C37.0311363,38.7982397 36.8421435,38.8458373 36.6531507,38.8458373" id="Fill-3" fill="#FFFFFF"></path>
                    <mask id="mask-2" fill="white">
                        <use xlink:href="#path-1"></use>
                    </mask>
                    <g id="Clip-6"></g>
                    <polygon id="Fill-5" fill="#FFFFFF" mask="url(#mask-2)" points="35.5077397 51.6159354 37.7985616 51.6159354 37.7985616 37.6849193 35.5077397 37.6849193"></polygon>
                    <polygon id="Fill-7" fill="#FFFFFF" mask="url(#mask-2)" points="13.7449315 38.8458373 16.0357534 38.8458373 16.0357534 36.5240013 13.7449315 36.5240013"></polygon>
                    <polygon id="Fill-8" fill="#FFFFFF" mask="url(#mask-2)" points="19.4719863 23.7539032 21.7628082 23.7539032 21.7628082 21.4320672 19.4719863 21.4320672"></polygon>
                    <polygon id="Fill-9" fill="#FFFFFF" mask="url(#mask-2)" points="14.8903425 30.7194112 17.1811644 30.7194112 17.1811644 28.3975752 14.8903425 28.3975752"></polygon>
                    <polygon id="Fill-10" fill="#FFFFFF" mask="url(#mask-2)" points="14.8903425 46.9722634 17.1811644 46.9722634 17.1811644 44.6504273 14.8903425 44.6504273"></polygon>
                    <polygon id="Fill-11" fill="#FFFFFF" mask="url(#mask-2)" points="56.1251369 30.7194112 58.4159589 30.7194112 58.4159589 28.3975752 56.1251369 28.3975752"></polygon>
                    <polygon id="Fill-12" fill="#FFFFFF" mask="url(#mask-2)" points="56.1251369 46.9722634 58.4159589 46.9722634 58.4159589 44.6504273 56.1251369 44.6504273"></polygon>
                    <polygon id="Fill-13" fill="#FFFFFF" mask="url(#mask-2)" points="26.344452 19.1102311 28.635274 19.1102311 28.635274 16.7883951 26.344452 16.7883951"></polygon>
                    <polygon id="Fill-14" fill="#FFFFFF" mask="url(#mask-2)" points="44.6710274 19.1102311 46.9618493 19.1102311 46.9618493 16.7883951 44.6710274 16.7883951"></polygon>
                    <polygon id="Fill-15" fill="#FFFFFF" mask="url(#mask-2)" points="26.344452 58.5814434 28.635274 58.5814434 28.635274 56.2596074 26.344452 56.2596074"></polygon>
                    <polygon id="Fill-16" fill="#FFFFFF" mask="url(#mask-2)" points="44.6710274 58.5814434 46.9618493 58.5814434 46.9618493 56.2596074 44.6710274 56.2596074"></polygon>
                    <polygon id="Fill-17" fill="#FFFFFF" mask="url(#mask-2)" points="19.4719863 53.9377714 21.7628082 53.9377714 21.7628082 51.6159354 19.4719863 51.6159354"></polygon>
                    <polygon id="Fill-18" fill="#FFFFFF" mask="url(#mask-2)" points="51.5434931 23.7539032 53.834315 23.7539032 53.834315 21.4320672 51.5434931 21.4320672"></polygon>
                    <polygon id="Fill-19" fill="#FFFFFF" mask="url(#mask-2)" points="51.5434931 53.9377714 53.834315 53.9377714 53.834315 51.6159354 51.5434931 51.6159354"></polygon>
                    <polygon id="Fill-20" fill="#FFFFFF" mask="url(#mask-2)" points="57.2705479 38.8458373 59.5613698 38.8458373 59.5613698 36.5240013 57.2705479 36.5240013"></polygon>
                    <polygon id="Fill-21" fill="#FFFFFF" mask="url(#mask-2)" points="35.5077397 16.7883951 37.7985616 16.7883951 37.7985616 14.4665591 35.5077397 14.4665591"></polygon>
                    <polygon id="Fill-22" fill="#FFFFFF" mask="url(#mask-2)" points="35.5077397 60.9032795 37.7985616 60.9032795 37.7985616 58.5814434 35.5077397 58.5814434"></polygon>
                    <path d="M34.2515675,72.4229528 C35.8963776,72.5436882 37.4106109,72.5436882 39.0542757,72.4229528 L40.4448046,66.4616388 L41.2019212,66.3397424 C41.8754228,66.2294552 42.5512153,66.0936278 43.269388,65.920651 L44.0150505,65.7418696 L47.5566612,70.7198861 C49.0663128,70.2079212 50.5519109,69.5821864 51.9882562,68.8531299 L51.0226748,62.8001034 L51.6744136,62.3926212 C52.2425374,62.0385412 52.8301332,61.6380245 53.4211653,61.2038411 L54.041978,60.7464394 L59.1928911,63.9714697 C60.4001543,62.9069079 61.5375473,61.7541163 62.5878892,60.5305087 L59.407083,55.3098604 L59.8583749,54.6806428 C60.2833224,54.0862528 60.6773437,53.4907019 61.0324211,52.907921 L61.4344604,52.2485196 L67.4043423,53.2283344 C68.1236604,51.7713823 68.7410369,50.2656717 69.2473085,48.7367426 L64.3357863,45.1460232 L64.5121796,44.3914265 C64.6817004,43.6635309 64.8168589,42.9785893 64.9245276,42.2959695 L65.0459411,41.5286027 L70.9276264,40.1192483 C70.9860423,39.2857091 71.015823,38.4707447 71.015823,37.6848032 C71.015823,36.8988617 70.9860423,36.0838973 70.9276264,35.2503581 L65.0459411,33.8421646 L64.9245276,33.0736369 C64.8168589,32.392178 64.6817004,31.7072364 64.5121796,30.9793408 L64.3357863,30.2235831 L69.2473085,26.6340247 C68.7410369,25.1039347 68.1236604,23.5982241 67.4043423,22.141272 L61.433315,23.1210868 L61.0312757,22.4605244 C60.68078,21.8847091 60.2867586,21.2891581 59.8583749,20.6889635 L59.407083,20.0609069 L62.5878892,14.8390977 C61.5375473,13.616651 60.4001543,12.4638594 59.1928911,11.3981367 L54.041978,14.6231669 L53.4211653,14.1657652 C52.8301332,13.7315819 52.2425374,13.3322261 51.6744136,12.9769852 L51.0226748,12.569503 L51.9882562,6.51647648 C50.5519109,5.78858089 49.0663128,5.16168517 47.5566612,4.64972032 L44.0150505,9.62773675 L43.269388,9.44895537 C42.5512153,9.27597859 41.8754228,9.14015118 41.2019212,9.03102489 L40.4448046,8.90796758 L39.0542757,2.9466536 C37.4106109,2.82707905 35.8963776,2.82707905 34.2515675,2.9466536 L32.8610386,8.90796758 L32.103922,9.03102489 C31.4304203,9.14015118 30.7546278,9.27597859 30.0364552,9.44895537 L29.2919381,9.62773675 L25.749182,4.64972032 C24.2406757,5.16168517 22.7550777,5.78858089 21.317587,6.51647648 L22.2843138,12.5683421 L21.632575,12.9758243 C21.0587241,13.3345479 20.4711283,13.7350647 19.8846779,14.1657652 L19.2638651,14.6231669 L14.112952,11.3981367 C12.9056889,12.4638594 11.7682958,13.616651 10.717954,14.8390977 L13.8999056,20.0609069 L13.4486137,20.6889635 C13.02023,21.2891581 12.6250632,21.8847091 12.2757129,22.4605244 L11.8736736,23.1210868 L5.90150088,22.141272 C5.1821828,23.5982241 4.56480629,25.1039347 4.05968006,26.6340247 L8.97120225,30.2235831 L8.79366355,30.9793408 C8.62414273,31.7072364 8.49012965,32.392178 8.3813156,33.0736369 L8.26104745,33.8421646 L2.37936218,35.2503581 C2.31980081,36.0838973 2.29116554,36.8988617 2.29116554,37.6848032 C2.29116554,38.4707447 2.31980081,39.2857091 2.37936218,40.1192483 L8.26104745,41.5286027 L8.3813156,42.2959695 C8.49012965,42.9785893 8.62414273,43.6635309 8.79366355,44.3914265 L8.97120225,45.1460232 L4.05968006,48.7367426 C4.56480629,50.2656717 5.1821828,51.7713823 5.90150088,53.2283344 L11.8725282,52.2485196 L12.2745675,52.907921 C12.6284994,53.4907019 13.0236662,54.0862528 13.4486137,54.6806428 L13.8999056,55.3098604 L10.717954,60.5305087 C11.7682958,61.7541163 12.9056889,62.9069079 14.112952,63.9714697 L19.2638651,60.7464394 L19.8846779,61.2038411 C20.4711283,61.6345417 21.0587241,62.0350584 21.632575,62.3937821 L22.2843138,62.8012643 L21.317587,68.8531299 C22.7550777,69.5821864 24.2406757,70.2079212 25.749182,70.7198861 L29.2919381,65.7418696 L30.0364552,65.920651 C30.7546278,66.0936278 31.4304203,66.2294552 32.103922,66.3397424 L32.8610386,66.4616388 L34.2515675,72.4229528 Z M36.6534943,74.8341795 C35.5527544,74.8341795 34.3981801,74.7772945 33.2229885,74.6681682 L32.4040196,74.5892258 L30.9825646,68.497889 C30.7431737,68.4526132 30.5026374,68.4026937 30.2598103,68.3504524 L26.6403117,73.438756 L25.8534144,73.1938023 C23.6828606,72.5146653 21.5501054,71.6172757 19.5181464,70.5248518 L18.7919558,70.1347834 L19.7793,63.9505731 C19.5777077,63.8159067 19.3738246,63.6777574 19.1699414,63.5349645 L13.9090689,66.827328 L13.276802,66.2967884 C11.51516,64.816618 9.88409478,63.1623098 8.42369581,61.3779788 L7.900243,60.7371521 L11.1486285,55.4050557 C11.0077429,55.1984123 10.871439,54.9917689 10.7385714,54.7874473 L4.63696718,55.7881586 L4.2521091,55.0521366 C3.17427739,52.9926681 2.28887472,50.8310387 1.61880931,48.6310991 L1.37712759,47.8335484 L6.39746382,44.1650475 C6.34592033,43.9189329 6.29666766,43.6739792 6.25199663,43.4325083 L0.242025335,41.991809 L0.16413739,41.1617526 C0.0564687602,39.9706507 0.000343623286,38.8004454 0.000343623286,37.6848032 C0.000343623286,36.569161 0.0564687602,35.3989556 0.16413739,34.2078538 L0.242025335,33.3777974 L6.25199663,31.9370981 C6.29666766,31.6956272 6.34592033,31.4506735 6.39746382,31.2045589 L1.37712759,27.536058 L1.61880931,26.7385073 C2.28887472,24.5385677 3.17427739,22.3780992 4.2521091,20.3174698 L4.63696718,19.5814478 L10.7385714,20.58332 C10.8702936,20.3778375 11.0077429,20.1711941 11.1486285,19.9645507 L7.900243,14.6336152 L8.42369581,13.9916275 C9.88409478,12.2072966 11.51516,10.5529884 13.276802,9.07397886 L13.9090689,8.54343933 L19.1699414,11.8358028 C19.3738246,11.691849 19.5777077,11.5536997 19.7793,11.4190332 L18.7919558,5.234823 L19.5181464,4.84475455 C21.5501054,3.75349162 23.6828606,2.85494108 25.8534144,2.17580405 L26.6403117,1.93085035 L30.2598103,7.01915398 C30.5026374,6.96691267 30.7431737,6.91699319 30.9825646,6.87171739 L32.4040196,0.780380599 L33.2229885,0.702599092 C35.5733718,0.482024671 37.7324714,0.482024671 40.0840001,0.702599092 L40.9029689,0.780380599 L42.3244239,6.87171739 C42.5626694,6.91699319 42.8043511,6.96691267 43.0471783,7.01915398 L46.6666769,1.93085035 L47.4524288,2.17580405 C49.624128,2.85494108 51.7557378,3.75349162 53.7888422,4.84475455 L54.5150328,5.234823 L53.5265431,11.4190332 C53.7292808,11.5525388 53.933164,11.691849 54.1359017,11.8358028 L59.3967743,8.54343933 L60.0301865,9.07397886 C61.7906832,10.5529884 63.4228938,12.2072966 64.8821473,13.9916275 L65.4056002,14.6336152 L62.1572147,19.9645507 C62.2981002,20.1711941 62.436695,20.3778375 62.5684172,20.58332 L68.6700214,19.5814478 L69.0548795,20.3174698 C70.1315658,22.3780992 71.0181139,24.5385677 71.6881793,26.7385073 L71.929861,27.536058 L66.9095247,31.2045589 C66.9610682,31.4506735 67.0103209,31.6956272 67.0549919,31.9370981 L73.0649632,33.3777974 L73.1417058,34.2078538 C73.2505198,35.3989556 73.3066449,36.569161 73.3066449,37.6848032 C73.3066449,38.8004454 73.2505198,39.9706507 73.1417058,41.1617526 L73.0649632,41.991809 L67.0549919,43.4325083 C67.0103209,43.6739792 66.9610682,43.9189329 66.9095247,44.1650475 L71.929861,47.8335484 L71.6881793,48.6310991 C71.0181139,50.8310387 70.1315658,52.9926681 69.0548795,55.0521366 L68.6700214,55.7881586 L62.5684172,54.7874473 C62.4355495,54.9917689 62.2981002,55.1984123 62.1572147,55.4050557 L65.4056002,60.7371521 L64.8821473,61.3779788 C63.4228938,63.1623098 61.7906832,64.816618 60.0301865,66.2967884 L59.3967743,66.827328 L54.1359017,63.5349645 C53.933164,63.6777574 53.7292808,63.8170676 53.5265431,63.9505731 L54.5150328,70.1347834 L53.7888422,70.5248518 C51.7557378,71.6172757 49.624128,72.5146653 47.4524288,73.1938023 L46.6666769,73.438756 L43.0471783,68.3504524 C42.8043511,68.4026937 42.5626694,68.4526132 42.3244239,68.497889 L40.9029689,74.5892258 L40.0840001,74.6681682 C38.9088085,74.7772945 37.7542342,74.8341795 36.6534943,74.8341795 L36.6534943,74.8341795 Z" id="Fill-23" fill="#FFFFFF" mask="url(#mask-2)"></path>
                </g>
            </g>
        </g>
    </g>
</svg>