<?xml version="1.0" encoding="UTF-8" standalone="no"?>
<svg width="73px" height="74px" viewBox="0 0 73 74" version="1.1" xmlns="http://www.w3.org/2000/svg" xmlns:xlink="http://www.w3.org/1999/xlink">
    <!-- Generator: Sketch 39.1 (31720) - http://www.bohemiancoding.com/sketch -->
    <title>Producers Icon Solutions@3x</title>
    <desc>Created with Sketch.</desc>
    <defs>
        <polygon id="path-1" points="11.3578566 6.89894716 11.3578566 -0.000287456132 -0.000283946412 -0.000287456132 -0.000283946412 6.89894716 11.3578566 6.89894716"></polygon>
        <polygon id="path-3" points="0 73.5887697 72.690282 73.5887697 72.690282 0 0 0"></polygon>
    </defs>
    <g id="Page-1" stroke="none" stroke-width="1" fill="none" fill-rule="evenodd">
        <g id="Home@2x" transform="translate(-627.000000, -942.000000)">
            <g id="Group-9" transform="translate(18.000000, 939.000000)">
                <g id="Producers-Icon-Solutions" transform="translate(609.000000, 3.000000)">
                    <polygon id="Fill-1" fill="#FFFFFF" points="65.875568 67.839647 68.1471394 67.839647 68.1471394 39.0940339 65.875568 39.0940339"></polygon>
                    <g id="Group-21">
                        <g id="Group-4" transform="translate(61.332425, 62.090524)">
                            <mask id="mask-2" fill="white">
                                <use xlink:href="#path-1"></use>
                            </mask>
                            <g id="Clip-3"></g>
                            <path d="M5.67892828,6.89894716 C5.38816715,6.89894716 5.09740602,6.78626435 4.87592782,6.56204857 L0.332785197,1.96275047 C-0.111306994,1.51316908 -0.111306994,0.786479976 0.332785197,0.336898586 C0.776877389,-0.112682804 1.49469392,-0.112682804 1.93878611,0.336898586 L5.67892828,4.12327075 L9.41907045,0.336898586 C9.86316264,-0.112682804 10.5809792,-0.112682804 11.0250714,0.336898586 C11.4691636,0.786479976 11.4691636,1.51316908 11.0250714,1.96275047 L6.48192874,6.56204857 C6.26045054,6.78626435 5.96968941,6.89894716 5.67892828,6.89894716" id="Fill-2" fill="#FFFFFF" mask="url(#mask-2)"></path>
                        </g>
                        <mask id="mask-4" fill="white">
                            <use xlink:href="#path-3"></use>
                        </mask>
                        <g id="Clip-6"></g>
                        <polygon id="Fill-5" fill="#FFFFFF" mask="url(#mask-4)" points="4.54314262 34.4947358 6.81471394 34.4947358 6.81471394 5.74912263 4.54314262 5.74912263"></polygon>
                        <path d="M10.2220709,11.4982453 C9.93130978,11.4982453 9.64054865,11.3855625 9.41907045,11.1613467 L5.67892828,7.37497451 L1.93878611,11.1613467 C1.49469392,11.6109281 0.776877389,11.6109281 0.332785197,11.1613467 C-0.111306994,10.7117653 -0.111306994,9.98507618 0.332785197,9.53549479 L4.87592782,4.93619669 C5.32002001,4.4866153 6.03783655,4.4866153 6.48192874,4.93619669 L11.0250714,9.53549479 C11.4691636,9.98507618 11.4691636,10.7117653 11.0250714,11.1613467 C10.8035932,11.3855625 10.512832,11.4982453 10.2220709,11.4982453" id="Fill-7" fill="#FFFFFF" mask="url(#mask-4)"></path>
                        <polygon id="Fill-8" fill="#FFFFFF" mask="url(#mask-4)" points="38.6167123 6.89894716 67.0113537 6.89894716 67.0113537 4.5992981 38.6167123 4.5992981"></polygon>
                        <path d="M67.0113537,6.89894716 C66.7205926,6.89894716 66.4298314,6.78626435 66.2083532,6.56204857 L61.6652106,1.96275047 C61.2211184,1.51316908 61.2211184,0.786479976 61.6652106,0.336898586 C62.1093028,-0.112682804 62.8271193,-0.112682804 63.2712115,0.336898586 L67.8143542,4.93619669 C68.2584464,5.38577808 68.2584464,6.11246718 67.8143542,6.56204857 C67.592876,6.78626435 67.3021148,6.89894716 67.0113537,6.89894716" id="Fill-9" fill="#FFFFFF" mask="url(#mask-4)"></path>
                        <path d="M62.4682111,11.4982453 C62.17745,11.4982453 61.8866888,11.3855625 61.6652106,11.1613467 C61.2211184,10.7117653 61.2211184,9.98507618 61.6652106,9.53549479 L66.2083532,4.93619669 C66.6524454,4.4866153 67.370262,4.4866153 67.8143542,4.93619669 C68.2584464,5.38577808 68.2584464,6.11246718 67.8143542,6.56204857 L63.2712115,11.1613467 C63.0497333,11.3855625 62.7589722,11.4982453 62.4682111,11.4982453" id="Fill-10" fill="#FFFFFF" mask="url(#mask-4)"></path>
                        <polygon id="Fill-11" fill="#FFFFFF" mask="url(#mask-4)" points="5.67892828 68.9894716 34.0735697 68.9894716 34.0735697 66.6898225 5.67892828 66.6898225"></polygon>
                        <path d="M5.67892828,68.9894716 C5.38816715,68.9894716 5.09740602,68.8767888 4.87592782,68.652573 C4.43183563,68.2029916 4.43183563,67.4763025 4.87592782,67.0267211 L9.41907045,62.427423 C9.86316264,61.9778416 10.5809792,61.9778416 11.0250714,62.427423 C11.4691636,62.8770044 11.4691636,63.6036935 11.0250714,64.0532749 L6.48192874,68.652573 C6.26045054,68.8767888 5.96968941,68.9894716 5.67892828,68.9894716" id="Fill-12" fill="#FFFFFF" mask="url(#mask-4)"></path>
                        <path d="M10.2220709,73.5887697 C9.93130978,73.5887697 9.64054865,73.4760869 9.41907045,73.2518711 L4.87592782,68.652573 C4.43183563,68.2029916 4.43183563,67.4763025 4.87592782,67.0267211 C5.32002001,66.5771397 6.03783655,66.5771397 6.48192874,67.0267211 L11.0250714,71.6260192 C11.4691636,72.0756006 11.4691636,72.8022897 11.0250714,73.2518711 C10.8035932,73.4760869 10.512832,73.5887697 10.2220709,73.5887697" id="Fill-13" fill="#FFFFFF" mask="url(#mask-4)"></path>
                        <path d="M36.345141,26.4459641 C32.905982,26.4459641 31.8019984,27.7027223 31.8019984,31.6201745 C31.8019984,34.6867565 33.3943699,37.9442094 36.345141,37.9442094 C39.2959121,37.9442094 40.8882836,34.6867565 40.8882836,31.6201745 C40.8882836,27.7027223 39.7843,26.4459641 36.345141,26.4459641 M36.345141,40.2438584 C32.4596183,40.2438584 29.5304271,36.5368241 29.5304271,31.6201745 C29.5304271,28.1408054 30.3050329,24.146315 36.345141,24.146315 C42.3852491,24.146315 43.1598549,28.1408054 43.1598549,31.6201745 C43.1598549,36.5368241 40.2306637,40.2438584 36.345141,40.2438584" id="Fill-14" fill="#FFFFFF" mask="url(#mask-4)"></path>
                        <path d="M45.4314262,49.4424546 L27.2588557,49.4424546 C25.4120683,49.4424546 23.8514988,47.3371259 23.8514988,44.8431565 L23.8514988,41.8766092 L32.3744343,36.9461617 L33.5011337,38.942257 L26.1230701,43.2104057 L26.1230701,44.8431565 C26.1230701,46.2505417 26.9215274,47.1428056 27.2588557,47.1428056 L45.4314262,47.1428056 C45.7687546,47.1428056 46.5672119,46.2505417 46.5672119,44.8431565 L46.5672119,43.2104057 L39.1891483,38.942257 L40.3158476,36.9461617 L48.8387832,41.8766092 L48.8387832,44.8431565 C48.8387832,47.3371259 47.2782137,49.4424546 45.4314262,49.4424546" id="Fill-15" fill="#FFFFFF" mask="url(#mask-4)"></path>
                        <path d="M36.345141,11.4982453 C22.5669252,11.4982453 11.3578566,22.8458635 11.3578566,36.7943848 C11.3578566,50.7429062 22.5669252,62.0905244 36.345141,62.0905244 C50.1233568,62.0905244 61.3324254,50.7429062 61.3324254,36.7943848 C61.3324254,22.8458635 50.1233568,11.4982453 36.345141,11.4982453 M36.345141,64.3901735 C21.3152894,64.3901735 9.08628525,52.0100128 9.08628525,36.7943848 C9.08628525,21.5787569 21.3152894,9.19859621 36.345141,9.19859621 C51.3749926,9.19859621 63.6039967,21.5787569 63.6039967,36.7943848 C63.6039967,52.0100128 51.3749926,64.3901735 36.345141,64.3901735" id="Fill-16" fill="#FFFFFF" mask="url(#mask-4)"></path>
                        <path d="M33.9914524,68.986712 C18.4380036,67.8495355 5.81601761,55.0680861 4.63480053,39.2556992 L6.90069291,39.0832255 C7.99672607,53.7676346 19.7146267,65.6372731 34.1561413,66.6928121 L33.9914524,68.986712 Z" id="Fill-17" fill="#FFFFFF" mask="url(#mask-4)"></path>
                        <path d="M38.8096823,68.894611 L38.6370429,66.6018609 C53.0467555,65.4819318 64.7214962,53.6352898 65.7936779,39.0451663 L68.0584345,39.2153404 C66.9044763,54.9299922 54.3313291,67.6895949 38.8096823,68.894611" id="Fill-18" fill="#FFFFFF" mask="url(#mask-4)"></path>
                        <path d="M65.7990161,34.6143175 C64.7540933,19.9379573 53.0373285,8.05797028 38.5412961,6.9805847 L38.7082566,4.68668477 C54.3196305,5.84800754 66.9404807,18.642105 68.0637727,34.4487428 L65.7990161,34.6143175 Z" id="Fill-19" fill="#FFFFFF" mask="url(#mask-4)"></path>
                        <path d="M6.9012608,34.473349 L4.6365042,34.2974259 C5.83021493,18.5724257 18.4453862,5.84271835 33.9817982,4.6871447 L34.1476229,6.9798948 C19.7231451,8.05383091 8.0097876,19.8728772 6.9012608,34.473349" id="Fill-20" fill="#FFFFFF" mask="url(#mask-4)"></path>
                    </g>
                </g>
            </g>
        </g>
    </g>
</svg>