<?xml version="1.0" encoding="UTF-8" standalone="no"?>
<svg width="75px" height="76px" viewBox="0 0 75 76" version="1.1" xmlns="http://www.w3.org/2000/svg" xmlns:xlink="http://www.w3.org/1999/xlink">
    <!-- Generator: Sketch 39.1 (31720) - http://www.bohemiancoding.com/sketch -->
    <title>Studios Icon Solutions@3x</title>
    <desc>Created with Sketch.</desc>
    <defs>
        <polygon id="path-1" points="3.49126101 11.7818733 6.98281296 11.7818733 6.98281296 -0.000294546832 -0.00029095054 -0.000294546832 -0.00029095054 11.7818733 3.49126101 11.7818733"></polygon>
        <polygon id="path-3" points="6.98310391 0 -0.00029095054 0 -0.00029095054 11.7818733 6.98310391 11.7818733 6.98310391 0"></polygon>
        <polygon id="path-5" points="21.2944025 16.8282094 0 16.8282094 0 0.1560074 21.2944025 0.1560074 21.2944025 16.8282094"></polygon>
        <polygon id="path-7" points="19.27108 0.182635566 0.0629669767 0.182635566 0.0629669767 13.0789338 19.27108 13.0789338 19.27108 0.182635566"></polygon>
    </defs>
    <g id="Page-1" stroke="none" stroke-width="1" fill="none" fill-rule="evenodd">
        <g id="Home@2x" transform="translate(-339.000000, -940.000000)">
            <g id="Group-9" transform="translate(18.000000, 939.000000)">
                <g id="Studios-Icon-Solutions" transform="translate(321.000000, 1.000000)">
                    <g id="Page-1">
                        <polygon id="Fill-1" fill="#FFFFFF" points="54.6987015 70.6912397 73.3195361 70.6912397 73.3195361 68.334865 54.6987015 68.334865"></polygon>
                        <g id="Group-12">
                            <g id="Group-4" transform="translate(67.500525, 63.622116)">
                                <mask id="mask-2" fill="white">
                                    <use xlink:href="#path-1"></use>
                                </mask>
                                <g id="Clip-3"></g>
                                <path d="M1.16380216,11.7818733 C0.865868807,11.7818733 0.567935454,11.6664109 0.340994033,11.4366644 C-0.114052612,10.9759932 -0.114052612,10.2313788 0.340994033,9.77070751 L4.17339455,5.89093664 L0.340994033,2.01116577 C-0.114052612,1.55049452 -0.114052612,0.805880133 0.340994033,0.345208887 C0.796040678,-0.115462358 1.53156364,-0.115462358 1.98661029,0.345208887 L6.64181893,5.0579582 C7.09686557,5.51862945 7.09686557,6.26324384 6.64181893,6.72391508 L1.98661029,11.4366644 C1.75966887,11.6664109 1.46173551,11.7818733 1.16380216,11.7818733" id="Fill-2" fill="#FFFFFF" mask="url(#mask-2)"></path>
                            </g>
                            <g id="Group-7" transform="translate(36.077867, 0.000000)">
                                <mask id="mask-4" fill="white">
                                    <use xlink:href="#path-3"></use>
                                </mask>
                                <g id="Clip-6"></g>
                                <path d="M5.8190108,11.7818733 C5.52107745,11.7818733 5.2231441,11.6664109 4.99620268,11.4366644 L0.340994033,6.72391508 C-0.114052612,6.26324384 -0.114052612,5.51862945 0.340994033,5.0579582 L4.99620268,0.345208887 C5.45124932,-0.115462358 6.18677229,-0.115462358 6.64181893,0.345208887 C7.09686557,0.805880133 7.09686557,1.55049452 6.64181893,2.01116577 L2.80941842,5.89093664 L6.64181893,9.77070751 C7.09686557,10.2313788 7.09686557,10.9759932 6.64181893,11.4366644 C6.41487751,11.6664109 6.11694416,11.7818733 5.8190108,11.7818733" id="Fill-5" fill="#FFFFFF" mask="url(#mask-4)"></path>
                            </g>
                            <path d="M37.2416691,70.6912397 L0,70.6912397 L0,68.334865 L37.2416691,68.334865 C53.9259369,68.334865 67.5005253,54.5936662 67.5005253,37.7019945 C67.5005253,20.8103228 53.9259369,7.06912397 37.2416691,7.06912397 L37.2416691,4.71274931 C55.2096107,4.71274931 69.8281296,19.5119603 69.8281296,37.7019945 C69.8281296,55.8920287 55.2096107,70.6912397 37.2416691,70.6912397" id="Fill-8" fill="#FFFFFF"></path>
                            <path d="M20.3489644,65.9186385 C10.521819,59.8757157 4.65509226,49.3274045 4.65509226,37.7022301 C4.65509226,21.7849193 15.8601795,8.14151008 31.2980151,5.26084206 L31.7193115,7.57715835 C17.3870879,10.2528218 6.98269658,22.9218701 6.98269658,37.7022301 C6.98269658,48.4979606 12.4316183,58.2922319 21.556991,63.9051163 L20.3489644,65.9186385 Z" id="Fill-10" fill="#FFFFFF"></path>
                        </g>
                    </g>
                    <g id="Page-1" transform="translate(25.872812, 22.450811)">
                        <g id="Group-3" transform="translate(0.000000, 14.170738)">
                            <mask id="mask-6" fill="white">
                                <use xlink:href="#path-5"></use>
                            </mask>
                            <g id="Clip-2"></g>
                            <path d="M7.45930817,3.54441685 L13.8353883,3.54441685 C14.0426648,3.54441685 14.080886,3.65281032 13.921141,3.78595115 L10.9364573,6.28543519 C10.7762223,6.41907097 10.5174942,6.41907097 10.3587292,6.28543519 L7.37257545,3.78595115 C7.21332045,3.65281032 7.25252168,3.54441685 7.45930817,3.54441685 M20.2972212,14.6054999 C20.2864409,14.5965908 20.2207788,14.5228437 20.1384562,14.454046 C20.0556436,14.3847534 19.8508172,14.2318146 19.6915622,14.0981789 L12.9940319,8.49141546 C12.8337969,8.35827462 12.8337969,8.14148769 12.9940319,8.00834686 L18.0367802,3.78595115 C18.1965252,3.65281032 18.4934746,3.54441685 18.7007511,3.54441685 L20.9195407,3.54441685 C21.1268172,3.54441685 21.2944025,3.37514486 21.2944025,3.16578214 L21.2944025,0.534147163 C21.2944025,0.325279388 21.1268172,0.1560074 20.9195407,0.1560074 L20.2575299,0.1560074 L17.8451842,0.1560074 L0.374665762,0.1560074 C0.167389255,0.1560074 -0.000196006153,0.325279388 -0.000196006153,0.534147163 L-0.000196006153,3.16578214 C-0.000196006153,3.37514486 0.167389255,3.54441685 0.374665762,3.54441685 L2.59345542,3.54441685 C2.80024191,3.54441685 3.09768125,3.65281032 3.25693625,3.78595115 L8.30066458,8.00834686 C8.4604096,8.14148769 8.4604096,8.35827462 8.30066458,8.49141546 L1.67957673,14.0338357 C1.52032173,14.1674715 1.23758285,14.3530767 1.09008822,14.4990862 C0.839200345,14.74557 0.683865469,15.0900533 0.683865469,15.4711628 C0.683865469,16.220513 1.28462433,16.8283084 2.02748765,16.8283084 C2.32737706,16.8283084 2.6057058,16.728329 2.82915282,16.559552 C2.99526803,16.4343303 3.22459523,16.1863617 3.38385023,16.0522309 L10.3587292,10.2143271 C10.5174942,10.0806913 10.7762223,10.0806913 10.9364573,10.2143271 L17.9696481,16.1022206 C18.1293931,16.2358564 18.2602272,16.3422701 18.2616973,16.3412802 C18.2636574,16.3393004 18.3699907,16.474916 18.5410061,16.5932084 C18.7546528,16.7416926 19.0128909,16.8283084 19.2921996,16.8283084 C20.0247726,16.8283084 20.6196513,16.2279372 20.6196513,15.4870011 C20.6196513,15.2949615 20.5794701,15.1123259 20.5074378,14.9470135 C20.4236452,14.7554689 20.3114316,14.6252978 20.3129017,14.6238129 C20.3143717,14.6223281 20.3075115,14.6144089 20.2972212,14.6054999" id="Fill-1" fill="#FFFFFF" mask="url(#mask-6)"></path>
                        </g>
                        <g id="Group-6" transform="translate(0.980031, 0.312213)">
                            <mask id="mask-8" fill="white">
                                <use xlink:href="#path-7"></use>
                            </mask>
                            <g id="Clip-5"></g>
                            <path d="M12.0756941,6.27241807 L11.1608354,7.16629296 C11.0505819,7.27419148 10.9819798,7.48602894 11.0084406,7.63896766 L11.2294375,8.90553789 C11.2554083,9.05798167 11.1672056,9.12331472 11.0314713,9.05006251 L9.90639599,8.44771161 C9.77115175,8.37495435 9.55064483,8.37495435 9.41491056,8.44771161 L8.28983524,9.05006251 C8.15508101,9.12331472 8.06589821,9.05798167 8.09284906,8.90553789 L8.31286597,7.63896766 C8.33981681,7.48602894 8.27121466,7.27419148 8.1609612,7.16629296 L7.24561246,6.27241807 C7.135359,6.16451955 7.16917006,6.05959072 7.32107483,6.03731809 L8.58188441,5.85765221 C8.7342792,5.83636947 8.9126448,5.70520843 8.9797769,5.56563328 L9.53888446,4.4104262 C9.60650658,4.27085105 9.71578001,4.27085105 9.78291212,4.4104262 L10.3420197,5.56563328 C10.4101318,5.70520843 10.5870274,5.83636947 10.7399122,5.85765221 L12.0007217,6.03731809 C12.1526265,6.05959072 12.1864376,6.16451955 12.0756941,6.27241807 M16.8592243,1.40065146 L16.8592243,2.67613074 C16.8592243,2.88549346 16.690659,3.05476545 16.4838725,3.05476545 L2.84968446,3.05476545 C2.64289797,3.05476545 2.47531271,2.88549346 2.47531271,2.67613074 L2.47531271,1.40065146 C2.47531271,0.728018034 1.93580577,0.182586072 1.26938485,0.182586072 C0.603453944,0.182586072 0.0629669767,0.728018034 0.0629669767,1.40065146 L0.0629669767,12.7002991 C0.0629669767,12.9096618 0.231042253,13.0789338 0.43831876,13.0789338 L2.10045094,13.0789338 C2.30772745,13.0789338 2.47531271,12.9096618 2.47531271,12.7002991 L2.47531271,11.4762943 C2.47531271,11.2669316 2.64289797,11.0971647 2.84968446,11.0971647 L16.4838725,11.0971647 C16.690659,11.0971647 16.8592243,11.2669316 16.8592243,11.4762943 L16.8592243,12.7002991 C16.8592243,12.9096618 17.0272995,13.0789338 17.234086,13.0789338 L18.8967082,13.0789338 C19.1030047,13.0789338 19.27108,12.9096618 19.27108,12.7002991 L19.27108,1.40065146 C19.27108,0.728018034 18.731083,0.182586072 18.0651521,0.182586072 C17.3992212,0.182586072 16.8592243,0.728018034 16.8592243,1.40065146" id="Fill-4" fill="#FFFFFF" mask="url(#mask-8)"></path>
                        </g>
                    </g>
                </g>
            </g>
        </g>
    </g>
</svg>